<svg width="229" height="634" viewBox="0 0 229 634" fill="none" xmlns="http://www.w3.org/2000/svg">
<g clip-path="url(#clip0_96_637)">
<path d="M162.838 1.00894H174.767C174.858 2.89849 174.988 4.48454 174.988 6.08038C174.988 77.2862 175.108 148.482 174.898 219.688C174.687 291.373 174.127 363.049 173.767 434.735C173.747 438.445 172.626 442.88 179.261 444.133C179.261 442.293 179.261 440.619 179.261 438.954C179.381 392.685 179.491 346.415 179.611 300.146C179.861 202.065 180.102 103.985 180.452 5.90415C180.452 4.17125 181.393 1.37119 182.594 0.930618C186.247 -0.40088 187.237 1.63553 187.217 5.2482C187.097 34.2474 187.227 63.2467 187.197 92.2557C187.167 120.599 187.047 148.952 186.927 177.295C186.557 261.679 186.166 346.073 185.756 430.456C185.736 435.019 185.516 439.571 185.346 444.133C185.226 447.345 186.327 449.567 189.459 451.202C194.733 453.953 199.907 456.988 204.771 460.376C206.442 461.541 207.984 464.125 208.034 466.103C208.334 478.478 208.334 490.863 208.054 503.238C208.004 505.226 206.553 507.967 204.871 509.005C195.043 515.114 184.895 520.724 174.978 526.706C171.495 528.811 168.643 528.948 165.05 526.686C155.823 520.871 146.395 515.349 136.908 509.945C133.545 508.026 131.904 505.891 132.024 501.848C132.374 489.806 132.134 477.734 132.524 465.692C132.584 463.724 134.215 461.11 135.937 460.014C142.762 455.667 149.838 451.682 156.963 447.795C160.056 446.111 161.347 444.114 161.357 440.482C161.687 295.485 162.127 150.479 162.568 5.48317C162.568 4.05376 162.728 2.62436 162.818 1.01873L162.838 1.00894ZM138.649 483.677C138.569 483.677 138.499 483.677 138.419 483.677C138.419 488.729 138.068 493.81 138.579 498.813C138.809 501.016 140.25 503.845 142.072 505.01C150.408 510.366 159.015 515.339 167.692 520.156C169.033 520.9 171.605 520.753 173.016 519.98C181.723 515.202 190.33 510.238 198.776 505.04C200.298 504.1 201.779 501.828 201.839 500.115C202.189 490.188 202.319 480.241 202.009 470.323C201.939 468.189 200.278 465.32 198.436 464.145C190.24 458.888 181.783 453.992 173.236 449.283C171.755 448.461 169.013 448.461 167.522 449.264C159.806 453.415 152.42 458.153 144.684 462.275C140.54 464.488 137.788 466.769 138.539 471.968C139.089 475.796 138.649 479.771 138.649 483.677Z" fill="#141414"/>
<path d="M77.3505 347.913C77.3505 354.267 77.5206 360.621 77.2304 366.956C77.1603 368.522 75.9794 370.598 74.6484 371.469C69.2541 374.974 63.6497 378.185 58.0052 381.318C55.4132 382.757 54.3423 384.49 54.3423 387.525C54.3223 426.609 54.1822 465.692 53.952 504.766C53.932 507.987 55.133 509.857 57.8951 511.374C63.2594 514.321 68.6236 517.317 73.6476 520.773C75.3389 521.938 76.9102 524.572 76.9302 526.549C77.0803 538.915 76.9001 551.29 76.4798 563.655C76.4198 565.515 75.0187 568.061 73.4374 569.04C63.0292 575.453 52.4609 581.64 41.7724 587.593C40.1611 588.493 37.1588 588.601 35.5875 587.72C24.9091 581.748 14.3708 575.531 4.0026 569.059C2.25122 567.963 0.569891 565.241 0.539867 563.254C0.349717 551.055 0.790065 538.846 0.699994 526.638C0.66997 522.947 2.38132 520.998 5.32364 519.354C11.9589 515.633 18.464 511.678 25.1593 508.055C28.2718 506.371 29.5428 504.296 29.5227 500.703C29.4227 477.088 29.5227 453.484 29.6428 429.869C29.7029 417.014 29.813 404.15 30.1633 391.295C30.2533 387.897 29.0424 385.939 26.1201 384.304C19.3347 380.515 12.7795 376.335 5.99417 372.546C3.10189 370.931 1.70078 369.08 1.74082 365.644C1.91095 353.435 1.82088 341.217 1.67076 329.008C1.63073 325.953 2.49141 323.927 5.3937 322.321C15.952 316.467 26.3002 310.24 36.8886 304.434C38.3897 303.612 41.1819 303.573 42.6531 304.395C53.4516 310.485 64.1401 316.799 74.6784 323.32C76.1295 324.221 77.3005 326.619 77.3905 328.381C77.7108 334.882 77.5206 341.403 77.5206 347.913C77.4706 347.913 77.4106 347.913 77.3605 347.913H77.3505ZM71.4358 349.852C71.4358 342.607 71.7261 337.702 71.2957 332.846C71.1256 330.927 69.8446 328.45 68.2533 327.422C59.9267 322.057 51.42 316.927 42.7632 312.08C41.1419 311.17 38.1195 311.111 36.4983 311.992C27.7814 316.731 19.2246 321.773 10.808 327.001C9.3168 327.931 7.88567 330.222 7.83563 331.916C7.57542 341.843 7.52538 351.79 7.91569 361.708C7.99575 363.833 9.67708 366.535 11.4785 367.827C16.1722 371.175 21.7666 373.359 26.2201 376.942C34.927 383.972 43.1635 385.166 51.8103 377.197C52.631 376.443 53.7719 375.953 54.8427 375.522C67.793 370.373 75.5991 362.325 71.4358 349.852ZM70.1048 544.916C70.1048 539.864 70.375 534.793 69.9647 529.78C69.8046 527.91 68.5035 525.463 66.9323 524.474C58.5356 519.197 49.9589 514.194 41.282 509.377C39.941 508.633 37.419 508.702 36.0479 509.446C27.331 514.204 18.7242 519.138 10.2575 524.307C8.75635 525.228 7.32522 527.489 7.25517 529.193C6.84484 539.277 6.6647 549.381 6.86486 559.465C6.90489 561.433 8.48614 564.106 10.1975 565.192C18.5641 570.499 27.1609 575.482 35.8277 580.309C37.2088 581.072 39.7909 581.102 41.1619 580.338C49.8488 575.551 58.4456 570.577 66.8522 565.329C68.4335 564.341 69.7945 561.913 69.9547 560.033C70.385 555.02 70.1048 549.949 70.0948 544.897L70.1048 544.916ZM47.4869 387.809C43.5538 388.739 42.3829 391.03 42.4029 394.614C42.493 409.916 42.3729 425.219 42.3429 440.531C42.3028 459.583 42.2728 478.625 42.2128 497.678C42.2128 500.948 42.6531 503.836 47.4769 504.472V387.819L47.4869 387.809Z" fill="#141414"/>
<path d="M132.724 200.979C126.78 204.435 121.195 207.528 115.791 210.877C113.059 212.571 110.747 212.688 107.975 210.994C99.2378 205.639 90.3208 200.548 81.654 195.095C80.3029 194.253 79.1119 192.069 79.0919 190.483C78.9518 179.733 79.0019 168.974 79.3722 158.234C79.4422 156.383 80.9334 153.945 82.5347 152.888C87.6287 149.53 93.0229 146.583 98.4172 143.685C101.81 141.864 103.281 139.573 103.261 135.539C103.011 92.5301 102.981 49.5208 102.891 6.51144C102.891 4.76875 102.891 3.01626 102.891 0.95048H112.288C112.288 3.47641 112.288 5.69884 112.288 7.93105C112.288 48.9921 112.328 90.0434 112.238 131.104C112.238 134.629 112.939 137.165 117.562 138.105V1.11692C119.994 0.911318 121.726 0.764462 124.248 0.549072C124.248 2.69318 124.248 4.41629 124.248 6.12961C124.258 50.2844 124.298 94.4295 124.208 138.584C124.208 141.541 124.928 143.401 127.65 144.85C132.324 147.337 137.018 149.882 141.261 152.986C143.032 154.288 144.574 157.049 144.654 159.193C144.994 169.277 144.704 179.391 144.824 189.485C144.864 192.588 144.053 194.82 140.921 196.015C137.538 197.307 136.497 199.951 136.487 203.358C136.407 232.357 136.197 261.356 136.237 290.355C136.237 292.069 137.938 293.841 139.039 295.466C139.46 296.083 140.43 296.328 141.111 296.798C144.864 299.382 150.748 301.321 151.859 304.738C153.671 310.357 152.42 316.946 152.37 323.114C152.37 323.849 152.019 324.925 151.459 325.258C146.095 328.528 140.691 331.73 135.206 334.794C134.556 335.156 133.215 334.833 132.444 334.403C127.56 331.612 122.696 328.783 117.963 325.758C117.042 325.17 116.572 323.721 116.211 322.576C115.931 321.685 116.301 320.618 116.131 319.668C114.16 308.272 117.552 299.891 129.422 295.672C131.003 295.114 132.674 292.255 132.694 290.444C133.004 261.444 133.065 232.445 133.165 203.456C133.165 202.868 132.964 202.291 132.724 200.979ZM138.489 174.398C142.872 161.092 134.526 155.091 124.047 150.323C123.747 150.186 123.417 150.059 123.187 149.833C115.451 142.481 108.295 144.703 100.068 149.833C85.7472 158.772 86.1675 158.381 85.1567 175.142C84.5162 185.745 86.6379 193.411 97.5865 197.053C98.197 197.258 98.7575 197.689 99.2478 198.12C107.374 205.394 115.571 205.893 123.907 198.463C124.388 198.042 125.078 197.856 125.659 197.532C134.219 192.689 138.495 185.464 138.489 175.856C138.489 175.367 138.489 174.877 138.489 174.388V174.398ZM149.888 313.353C149.277 311.082 149.467 306.892 147.446 305.061C137.988 296.533 131.824 296.67 121.956 304.581C120.995 305.345 119.964 306.49 119.754 307.606C117.432 319.903 118.763 322.595 129.952 328.998C130.953 329.576 131.904 330.261 132.964 330.702C133.655 330.996 134.706 331.289 135.236 330.986C139.53 328.528 144.253 326.472 147.746 323.163C149.548 321.46 149.107 317.475 149.898 313.353H149.888Z" fill="#141414"/>
<path d="M31.4344 1.09724C31.4344 4.13227 31.4344 7.1673 31.4344 10.1925C31.4043 69.4834 31.4344 128.774 31.2142 188.075C31.1942 192.647 32.4752 195.692 36.6585 197.248C43.4138 199.755 44.6948 204.474 45.0851 211.2C45.6756 221.304 42.9034 227.755 33.0356 232.279C27.0909 235 23.2279 235.167 17.2932 232.279C7.78569 227.648 4.48309 221.568 5.22367 211.249C5.72407 204.249 7.17521 199.53 14.0907 197.092C19.6751 195.124 21.1863 191.257 21.1663 185.392C21.0061 125.612 21.1963 65.8315 21.2864 6.0512C21.2864 5.07215 21.0061 3.96583 21.3864 3.15323C21.8368 2.18398 23.1478 0.64688 23.5882 0.793736C24.699 1.15598 26.2102 2.23293 26.3604 3.20218C26.7507 5.74769 26.5105 8.39111 26.5105 10.9954C26.5305 58.0677 26.5605 105.15 26.5505 152.222C26.5505 163.462 26.4004 174.701 26.3604 185.931C26.3604 187.595 26.5705 189.269 27.5113 190.914C28.6121 127.58 28.3019 64.2651 28.5321 0.950383C29.5028 0.999335 30.4636 1.0385 31.4344 1.08745V1.09724ZM41.9427 214.656C41.3122 210.632 42.0127 205.864 39.9511 203.965C35.8478 200.186 30.2835 195.897 25.2095 195.75C20.4257 195.613 14.511 199.676 10.9482 203.534C8.50626 206.177 8.88656 211.611 8.6764 215.831C8.5463 218.406 8.79649 222.204 10.4378 223.438C14.9814 226.825 20.2856 231.133 25.4096 231.29C30.0433 231.427 35.3875 227.168 39.3506 223.673C41.4323 221.842 41.2021 217.505 41.9327 214.656H41.9427Z" fill="#141414"/>
<path d="M207.243 1.28319C213.888 -0.00914341 213.979 0.0104377 213.979 5.59098C213.958 62.2482 213.958 118.905 213.848 175.563C213.818 193.303 213.608 211.043 213.138 228.774C213.018 233.297 214.959 235.999 218.742 237.477C226.438 240.493 228.48 245.652 228.49 253.72C228.51 261.992 225.948 266.692 218.552 270.52C212.788 273.496 208.814 274.387 202.399 271.088C193.442 266.476 190.9 260.563 191.561 251.311C191.971 245.584 192.702 241.09 198.797 239.122C206.383 236.674 207.213 231.123 207.193 224.192C207.043 158.743 207.173 93.2838 207.223 27.8348C207.223 19.0626 207.223 10.3002 207.223 1.2734L207.243 1.28319ZM225.898 253.778C225.187 250.802 225.478 246.621 223.516 244.898C219.803 241.638 215.029 239.053 210.256 237.565C206.322 236.342 195.064 245.359 195.264 248.844C195.544 253.602 194.833 259.329 197.275 262.815C199.907 266.565 205.672 270.177 210.095 270.207C214.519 270.236 219.493 266.31 223.206 263.02C225.187 261.268 225.007 257.176 225.898 253.778Z" fill="#141414"/>
<path d="M122.226 455.265C122.226 422.859 122.186 390.453 122.296 358.046C122.306 354.894 121.385 352.857 118.593 351.291C115.421 349.509 113.779 341.52 115.701 338.319C118.013 334.471 124.518 333.032 128.681 335.46C135.266 339.288 135.627 348.119 129.041 351.712C125.549 353.611 125.929 356.421 125.909 359.231C125.779 378.117 125.759 397.012 125.669 415.898C125.439 461.003 125.248 506.107 124.828 551.202C124.788 555.216 126.089 557.399 129.542 559.289C137.558 563.684 137.488 574.885 129.602 579.496C123.227 583.226 118.413 583.412 113.719 577.234C111.187 573.896 112.128 567.826 112.128 562.989C112.128 561.844 114.49 560.258 116.071 559.651C120.765 557.849 121.545 554.589 121.515 550.027C121.325 518.433 121.415 486.849 121.415 455.256C121.686 455.256 121.966 455.256 122.236 455.256L122.226 455.265ZM114.16 569.304C114.19 573.964 119.564 580.123 123.337 579.829C127.73 579.486 132.594 573.818 132.544 569.099C132.494 564.566 127.4 559.259 123.057 559.23C118.713 559.2 114.13 564.389 114.16 569.294V569.304Z" fill="#141414"/>
<path d="M102.14 347.169C102.14 318.826 102.05 290.473 102.24 262.13C102.27 258.106 101.049 255.502 97.3662 254.141C89.7402 251.341 86.7078 246.181 88.239 238.31C88.8194 235.343 87.7486 231.055 89.4499 229.528C93.403 225.983 98.427 223.389 103.381 221.196C104.852 220.55 107.694 222.273 109.636 223.369C120.474 229.508 120.204 229.567 120.464 241.775C120.575 246.866 119.033 250.234 114.159 252.016C107.734 254.376 105.863 258.644 105.863 265.488C105.843 320.706 105.403 375.924 104.862 431.142C104.822 435.743 106.253 438.465 110.396 440.237C112.208 441.011 113.759 442.362 115.531 443.233C118.253 444.574 119.474 446.562 119.033 449.538C118.933 450.174 118.993 450.84 118.993 451.486C118.94 460.852 114.636 467.706 106.083 472.046C105.643 472.271 105.212 472.536 104.742 472.702C100.659 474.18 87.1081 464.997 87.0781 460.748C87.0781 459.769 87.2182 458.78 87.0781 457.821C85.8571 449.068 88.1389 442.264 97.5563 439.209C100.699 438.181 101.339 435.822 101.329 432.679C101.209 404.179 101.259 375.669 101.259 347.169C101.549 347.169 101.84 347.169 102.13 347.169H102.14ZM118.463 239.308C117.532 235.656 119.143 231.574 114.4 229.42C110.817 227.785 107.264 224.055 103.981 224.339C99.9482 224.691 95.1344 227.472 92.6825 230.673C90.5808 233.424 91.0812 238.251 90.8911 242.177C90.6809 246.387 100.168 255.335 104.152 254.053C108.605 252.623 112.898 249.97 116.431 246.925C118.103 245.486 117.842 241.912 118.463 239.308ZM116.922 454.786C116.261 451.78 116.581 448.011 114.84 446.464C111.497 443.507 106.974 440.051 102.961 440.08C98.9274 440.11 94.0135 443.38 91.2213 446.65C89.1997 449.009 89.8102 453.67 89.6301 457.331C89.3999 461.766 99.2076 471.302 103.331 470.029C107.484 468.747 111.647 466.299 114.72 463.303C116.541 461.521 116.261 457.674 116.932 454.776L116.922 454.786Z" fill="#141414"/>
<path d="M52.2206 217.29C52.2206 205.737 52.1206 194.174 52.2807 182.622C52.3307 178.94 50.9997 176.738 47.647 174.887C38.77 169.992 38.9001 158.41 47.657 153.211C53.4716 149.755 61.0976 151.155 65.401 156.471C68.3033 160.055 66.1416 172.205 61.8382 174.075C56.7842 176.268 55.4432 179.743 55.4632 184.834C55.5633 206.97 55.5032 229.107 55.1229 251.233C55.0429 255.648 56.5941 258.008 60.307 260.035C68.7237 264.616 68.7637 276.159 60.5472 281.094C54.002 285.02 47.1566 283.933 42.3028 278.176C39.1403 274.426 41.1419 262.747 45.6755 260.691C50.5793 258.468 52.1506 255.267 51.9404 250.009C51.4901 239.122 51.8003 228.206 51.8003 217.299H52.2306L52.2206 217.29ZM63.4095 270.696C63.3794 265.498 58.0953 259.77 53.3816 259.829C48.3075 259.897 43.3236 265.576 43.3336 271.294C43.3336 275.396 49.7287 281.73 53.7819 281.632C57.9852 281.525 63.4395 275.337 63.4095 270.696ZM44.2543 164.225C44.2243 169.424 48.938 174.662 53.952 175.014C57.5348 175.269 63.6397 169.483 63.6397 165.831C63.6497 159.585 58.6157 152.78 54.0121 152.839C49.8588 152.888 44.2844 159.399 44.2543 164.225Z" fill="#141414"/>
<path d="M135.487 620.763C134.666 615.711 136.838 612.539 141.471 610.757C145.134 609.347 146.015 606.704 145.955 603.042C145.755 590.187 145.765 577.323 145.865 564.468C145.885 561.58 145.304 559.475 142.352 558.231C136.818 555.881 138.129 550.742 139.32 547.227C140.24 544.505 144.063 541.431 146.976 541.01C149.748 540.608 153.611 542.85 155.883 545.034C158.625 547.677 156.113 556.028 153.171 558.496C151.569 559.837 149.998 562.206 149.928 564.164C149.498 577.176 149.638 590.197 149.217 603.208C149.097 607.017 150.378 609.141 153.681 610.933C161.717 615.3 161.857 626.656 154.101 631.219C147.826 634.91 141.762 634.234 137.298 628.556C135.797 626.637 136.037 623.406 135.487 620.782V620.763ZM138.389 621.203C138.329 625.785 143.433 631.473 147.546 631.434C151.669 631.395 156.803 626.089 156.873 621.791C156.964 616.465 152.42 611.266 147.576 611.139C143.063 611.021 138.459 616.063 138.389 621.203Z" fill="#141414"/>
<path d="M151.859 410.699C151.859 416.926 147.596 419.335 143.763 419.677C140.861 419.942 136.948 417.504 134.756 415.135C132.464 412.658 135.016 406.969 137.738 404.463C139.309 403.014 140.751 400.615 140.851 398.579C141.251 389.797 141.311 380.986 141.081 372.204C141.021 370.05 139.86 367.573 138.409 365.889C135.446 362.423 133.895 358.565 136.147 354.718C137.578 352.27 141.241 349.049 143.222 349.441C145.865 349.96 148.727 353.308 149.888 356.088C151.259 359.388 150.158 362.971 147.126 365.85C145.664 367.24 144.564 369.668 144.503 371.665C144.223 380.78 144.203 389.914 144.493 399.029C144.554 400.938 146.185 402.877 147.336 404.659C148.697 406.764 150.328 408.702 151.849 410.709L151.859 410.699Z" fill="#141414"/>
<path d="M68.3233 280.242C67.6828 274.945 70.0347 271.91 74.7384 269.747C76.3397 269.012 78.2412 266.79 78.2712 265.224C78.5614 251.106 78.5814 236.968 78.3313 222.851C78.3012 221.049 76.6199 218.846 75.0687 217.583C72.1564 215.224 69.6944 208.517 72.3565 205.101C74.3381 202.555 78.5314 200.254 81.7039 200.293C86.9981 200.362 89.5101 204.151 89.7002 208.938C89.8604 213.031 89.6102 216.555 84.8564 218.455C83.6254 218.944 82.7047 221.637 82.6647 223.33C82.3444 237.145 82.0742 250.979 82.3644 264.793C82.4045 266.751 85.2067 269.179 87.3083 270.491C94.3539 274.867 94.5441 285.94 87.4084 290.336C80.6631 294.487 75.8793 294.233 70.4951 288.339C68.8037 286.488 68.9839 283.003 68.3033 280.262L68.3233 280.242ZM89.5901 280.751C89.6402 275.513 85.577 270.882 80.6431 270.599C76.2596 270.344 71.2757 275.2 71.2457 279.762C71.2156 285.049 76.2196 290.786 80.7031 290.61C85.0365 290.444 89.5401 285.441 89.5801 280.761L89.5901 280.751ZM74.2781 209.702C74.178 213.178 77.4506 217.104 80.513 217.182C83.2852 217.26 87.0581 213.54 87.1882 210.593C87.3684 206.569 84.346 202.761 80.9233 202.682C77.6707 202.614 74.3881 206.08 74.2781 209.702Z" fill="#141414"/>
<path d="M89.0199 407.165C89.9307 412.951 86.9383 416.26 82.0645 418.385C79.0621 419.697 78.1714 421.704 78.2114 424.905C78.3816 437.604 78.3515 450.312 78.1514 463.01C78.1013 466.446 78.912 468.806 82.1745 470.558C85.7173 472.467 87.769 479.585 84.9968 482.865C82.8351 485.42 78.7719 487.554 75.4192 487.75C70.7956 488.024 67.553 483.178 67.1927 478.665C66.8625 474.474 67.9133 471.537 72.0065 469.579C73.2875 468.962 74.5285 466.818 74.5585 465.35C74.8688 451.349 75.119 437.349 74.8087 423.349C74.7687 421.332 72.0566 418.816 69.9549 417.494C62.9494 413.079 62.7792 401.731 69.9049 397.492C76.7703 393.41 81.8743 393.889 87.1585 399.95C88.6296 401.643 88.4495 404.727 89.0199 407.165ZM86.2077 407.106C86.2277 402.681 81.0937 397.081 76.9304 396.973C72.1366 396.856 66.6723 403.699 67.9933 410.484C68.5438 413.294 73.3876 416.309 76.8604 417.298C80.9836 418.473 86.1877 412.09 86.2077 407.106ZM70.115 477.744C70.045 481.416 73.3976 485.391 76.5801 485.41C79.3323 485.43 83.1353 481.279 83.2154 478.165C83.2954 474.768 79.6425 470.578 76.5301 470.509C73.7879 470.45 70.1751 474.523 70.125 477.744H70.115Z" fill="#141414"/>
</g>
<defs>
<clipPath id="clip0_96_637">
<rect width="228" height="633" fill="white" transform="translate(0.5 0.5)"/>
</clipPath>
</defs>
</svg>
