<svg width="650" height="649" viewBox="0 0 650 649" fill="none" xmlns="http://www.w3.org/2000/svg">
<g clip-path="url(#clip0_96_315)">
<path d="M76.8502 205.723C89.4611 218.603 101.208 230.731 113.122 242.693C115.129 244.712 117.986 245.867 120.173 247.747C121.218 248.638 121.985 250.24 122.166 251.618C122.25 252.287 120.703 253.818 119.922 253.804C118.529 253.777 116.704 253.247 115.826 252.259C109.959 245.603 104.483 238.613 98.5187 232.04C91.7046 224.521 84.5422 217.336 76.5576 208.995C67.1655 218.714 58.6375 227.459 50.2488 236.357C49.2733 237.387 48.7159 239.239 48.702 240.715C48.6045 258.302 48.6323 275.903 48.6323 294.618C55.6136 294.618 62.2326 294.618 68.8656 294.618C78.1461 294.618 87.4127 294.743 96.6793 294.464C99.7589 294.381 102.769 293.058 105.862 292.626C107.298 292.431 109.137 292.571 110.238 293.35C111.004 293.907 111.436 296.177 110.921 296.985C110.21 298.099 108.44 299.241 107.172 299.185C92.9588 298.586 78.7732 297.667 64.5597 297.041C58.6096 296.776 52.6455 296.999 45.9708 296.999C45.9708 277.156 45.929 258.233 46.0544 239.295C46.0544 237.861 46.9184 236.12 47.9495 235.062C57.1325 225.607 66.4409 216.264 76.8502 205.75V205.723Z" fill="#141414"/>
<path d="M586.945 251.591C586.945 240.534 586.945 231.121 586.945 221.694C586.945 215.442 586.499 209.148 587.071 202.952C587.656 196.546 584.994 192.355 580.828 187.774C575.505 181.926 569.694 180.491 562.03 179.99C549.712 179.182 540.152 182.204 532.655 192.272C527.235 199.54 521.145 206.322 515.042 213.033C514.15 214.022 511.503 213.423 509.677 213.562C509.747 211.738 509.078 209.093 510.025 208.215C519.752 199.248 529.604 190.406 539.762 181.939C542.312 179.809 545.991 178.486 549.335 178.013C553.878 177.358 558.616 178.277 563.2 177.776C570.962 176.913 576.494 179.558 582.054 185.212C587.558 190.823 589.927 196.296 589.621 204.107C589.049 219.076 589.579 234.087 589.231 249.084C589.203 250.504 586.346 252.969 584.73 253.053C575.714 253.456 566.67 253.053 557.64 253.359C553.641 253.498 549.698 254.793 545.698 255.239C544.305 255.392 542.215 255.044 541.532 254.125C540.793 253.136 540.779 250.769 541.504 249.794C542.187 248.875 544.277 248.583 545.698 248.666C559.118 249.53 572.523 250.546 586.945 251.591Z" fill="#141414"/>
<path d="M616.292 383.889C601.814 369.477 588.757 356.346 575.477 343.451C573.888 341.906 570.99 340.848 568.774 340.959C560.859 341.377 552.986 342.477 545.085 343.131C543.901 343.229 542.02 342.588 541.56 341.711C540.933 340.513 540.877 338.536 541.476 337.325C541.908 336.447 543.831 335.807 545.016 335.89C553.167 336.503 561.319 337.227 569.457 338.146C571.617 338.383 574.32 338.773 575.714 340.151C590.025 354.299 604.113 368.655 618.814 383.499C609.046 392.619 599.305 401.726 588.339 411.961C600.922 423.351 612.125 433.433 623.245 443.598C624.304 444.572 625.363 446.062 625.461 447.385C625.531 448.29 623.956 450.114 623.092 450.114C621.754 450.114 620.04 449.265 619.148 448.207C614.62 442.873 610.634 437.053 605.827 432.012C599.64 425.495 592.84 419.564 585.747 412.838C596.379 402.77 606.078 393.566 616.292 383.875V383.889Z" fill="#141414"/>
<path d="M45.9708 223.198C45.9708 207.059 46.0684 190.907 45.8872 174.768C45.8454 171.454 44.5216 168.182 44.1872 164.84C44.0339 163.266 44.3683 161.178 45.3438 160.119C46.0126 159.395 48.6324 159.535 49.566 160.287C50.4857 161.052 50.8201 163.099 50.6529 164.506C50.193 168.502 48.7996 172.457 48.7299 176.439C48.4791 190.071 48.6324 203.704 48.6324 219.355C58.0522 209.065 66.3434 200.014 75.819 189.668C84.2496 198.621 90.4226 206.168 97.6269 212.546C106.838 220.678 112.927 232.305 125.106 237.165C125.9 237.485 126.611 239.671 126.305 240.646C125.97 241.718 124.493 242.915 123.337 243.124C122.277 243.319 120.591 242.623 119.881 241.76C116.383 237.457 113.485 232.597 109.694 228.601C99.1876 217.517 88.3185 206.753 76.892 195.14C67.1238 205.291 57.7735 214.996 48.4233 224.716L45.9708 223.198Z" fill="#141414"/>
<path d="M340.969 52.8162C340.969 68.7042 340.9 84.5783 341.067 100.466C341.081 102.123 342.823 103.711 343.018 105.41C343.171 106.746 342.502 108.584 341.527 109.476C340.788 110.144 338.545 110.186 337.806 109.545C336.831 108.696 336.134 106.858 336.245 105.521C336.747 99.8954 338.113 94.3256 338.238 88.7139C338.545 74.9146 338.336 61.1153 338.336 45.6729C341.123 47.9426 342.725 49.0426 344.091 50.3933C361.328 67.5345 378.886 84.3834 395.468 102.137C399.3 106.245 399.871 113.444 401.558 119.334C401.683 119.78 398.589 121.144 397.001 122.077C396.248 120.406 394.395 118.067 394.939 117.176C399.3 109.963 395.789 105.34 390.758 100.369C374.622 84.453 358.764 68.2447 342.795 52.1478C342.195 52.3706 341.596 52.5934 340.997 52.8023L340.969 52.8162Z" fill="#141414"/>
<path d="M60.7972 282.434C60.7972 267.256 60.4349 252.955 61.1037 238.696C61.2431 235.744 65.1727 232.918 67.4719 230.133C69.9802 227.097 72.6278 224.173 75.8746 220.441C84.3748 228.866 91.8577 236.636 99.7309 243.946C105.207 249.028 111.311 253.429 116.968 258.302C118.013 259.193 118.863 260.948 118.808 262.271C118.766 263.246 117.177 264.875 116.188 264.93C114.85 265.028 112.997 264.276 112.119 263.232C107.59 257.912 103.591 252.134 98.8808 246.982C92.011 239.476 84.7092 232.361 77.2959 224.786C69.158 231.414 61.5079 236.9 63.0128 249.07C64.2251 258.845 63.2636 268.885 63.2636 280.679C78.9124 279.677 93.8922 278.674 108.872 277.825C110.279 277.741 112.091 278.228 113.08 279.134C113.763 279.76 113.889 282.016 113.289 282.74C112.425 283.798 110.656 284.759 109.318 284.689C96.3308 284.063 83.3715 283.172 70.3843 282.448C67.458 282.281 64.5038 282.42 60.7972 282.42V282.434Z" fill="#141414"/>
<path d="M235.037 78.1173C222.189 78.1173 209.453 77.9781 196.717 78.1869C191.714 78.2705 180.162 90.6495 180.12 95.8573C180.009 112.539 179.925 129.221 180.399 145.889C180.469 148.186 183.757 150.4 185.555 152.642C186.712 154.076 188.217 155.399 188.802 157.028C188.997 157.557 186.6 159.883 185.653 159.73C184.175 159.507 182.503 158.128 181.639 156.778C177.821 150.804 177.361 144.162 177.556 137.186C177.919 123.985 178.156 110.743 177.473 97.57C177.124 90.8305 181.347 87.7671 184.844 83.5618C189.958 77.4072 195.797 74.6361 204.088 75.3463C213.522 76.1539 223.095 75.764 232.585 75.4299C237.587 75.2488 239.162 76.9616 238.73 81.8352C238.326 86.4303 239.106 91.1369 238.619 95.7181C237.504 105.994 242.214 112.093 251.438 115.686C252.665 116.159 253.612 118.373 253.863 119.919C253.975 120.643 252.01 122.523 251.188 122.398C249.627 122.175 247.941 121.158 246.826 119.975C245.99 119.098 246.394 116.8 245.53 116.257C233.323 108.515 236.319 96.3308 236.18 85.0518C236.166 83.4365 236.096 81.8073 235.971 80.206C235.943 79.7883 235.623 79.3845 235.051 78.1173H235.037Z" fill="#141414"/>
<path d="M296.699 48.6666C294.19 48.778 291.933 48.959 289.676 48.9729C270 48.9868 250.31 48.7223 230.648 49.1121C224.294 49.2375 219.89 47.3576 215.598 42.7068C211.516 38.2927 206.123 35.09 201.455 31.1772C200.382 30.2721 199.197 28.4758 199.392 27.334C199.601 26.1365 201.371 24.5212 202.583 24.4098C203.768 24.2984 205.37 25.6352 206.332 26.7352C211.543 32.7089 216.56 38.8636 221.813 44.8094C222.608 45.7006 224.252 46.2576 225.506 46.2715C248.164 46.3551 270.836 46.3272 295.57 46.3272C294.525 32.876 293.48 20.0375 292.574 7.19895C292.476 5.73686 292.644 3.94058 293.438 2.85446C294.023 2.07468 296.267 1.58732 297.033 2.0886C298.148 2.81269 299.291 4.58112 299.235 5.86218C298.663 18.1855 297.855 30.5088 297.103 42.8182C296.991 44.6284 296.852 46.4247 296.699 48.6944V48.6666Z" fill="#141414"/>
<path d="M601.326 280.79C601.326 253.846 601.465 228.865 601.228 203.899C601.159 197.159 601.507 191.116 607.569 186.716C608.809 185.81 608.753 183.29 609.854 181.995C610.899 180.784 612.627 179.795 614.188 179.53C614.954 179.405 616.891 181.271 616.794 182.037C616.584 183.569 615.637 185.908 614.48 186.256C605.966 188.888 603.751 194.694 603.89 203.091C604.28 226.707 604.029 250.337 604.029 273.953C604.029 276.432 604.029 278.925 604.029 282.42C593.174 282.42 583.044 282.225 572.927 282.517C568.705 282.642 564.538 283.951 560.316 284.425C558.936 284.578 557.097 284.146 556.149 283.255C555.439 282.587 555.258 280.289 555.857 279.565C556.721 278.535 558.56 277.699 559.912 277.783C573.359 278.632 586.806 279.69 601.326 280.777V280.79Z" fill="#141414"/>
<path d="M309.059 615.428C309.059 592.898 309.087 571.37 308.989 549.857C308.989 548.367 307.707 546.919 307.54 545.401C307.359 543.786 307.289 541.711 308.153 540.583C308.752 539.789 311.678 539.622 312.375 540.332C313.365 541.349 313.671 543.465 313.518 545.039C313.197 548.367 311.887 551.653 311.86 554.967C311.692 575.534 311.776 596.114 311.776 617.391C308.78 617.558 306.327 617.809 303.875 617.823C291.125 617.851 278.319 618.644 265.652 617.6C251.968 616.472 244.318 622.989 238.897 634.282C238.298 635.521 236.124 636.426 234.577 636.635C233.769 636.747 231.846 634.825 231.958 634.059C232.181 632.527 233.184 630.801 234.396 629.812C236.821 627.849 240.249 626.846 242.102 624.535C247.941 617.252 254.978 614.704 264.384 615.233C278.904 616.041 293.508 615.442 309.073 615.442L309.059 615.428Z" fill="#141414"/>
<path d="M502.501 558.1C492.05 568.056 482.518 577.135 471.607 587.537C477.822 592.034 482.881 595.557 487.744 599.331C488.817 600.166 489.737 601.865 489.75 603.188C489.75 604.177 488.385 605.722 487.326 606.043C486.267 606.363 484.302 605.862 483.661 605.026C479.285 599.289 475.161 593.357 470.799 587.272C479.899 578.555 489.514 569.323 500.954 558.351C493.68 551.959 487.66 547.016 482.058 541.627C473.043 532.966 464.417 523.901 455.401 515.254C452.851 512.803 449.395 511.313 446.581 509.099C445.466 508.236 444.421 506.635 444.351 505.312C444.295 504.379 445.828 502.638 446.818 502.513C448.113 502.36 449.981 503.056 450.859 504.045C456.558 510.52 461.714 517.51 467.706 523.692C478.798 535.124 490.35 546.125 502.515 558.1H502.501Z" fill="#141414"/>
<path d="M587.335 177.762C591.836 173.626 595.348 170.396 598.859 167.165C598.65 166.594 598.455 166.037 598.246 165.466C595.668 166.093 593.104 166.97 590.485 167.249C588.715 167.43 586.722 167.04 585.134 166.288C584.604 166.037 584.562 162.946 585.05 162.709C586.639 161.944 588.576 161.735 590.387 161.609C594.247 161.345 598.121 161.108 601.981 161.192C603.555 161.219 605.91 161.693 606.482 162.737C607.053 163.796 606.384 166.511 605.339 167.291C599.765 171.524 593.899 175.367 587.698 179.67C586.917 179.071 585.287 178.375 584.507 177.121C575.17 162.18 560.316 165.745 546.59 165.898C544.89 165.912 542.967 167.667 541.574 169.031C532.154 178.277 522.762 187.565 513.579 197.034C511.781 198.886 511.168 201.81 509.538 203.899C508.743 204.929 506.862 205.681 505.552 205.569C504.535 205.486 502.905 203.899 502.877 202.938C502.835 201.629 503.741 199.888 504.8 199.025C508.451 196.059 512.575 193.65 516.101 190.573C520.281 186.924 524.601 183.206 527.848 178.778C537.686 165.355 550.506 160.565 566.837 162.765C571.701 163.42 575.783 164.018 578.933 168.001C581.511 171.259 584.339 174.309 587.321 177.762H587.335Z" fill="#141414"/>
<path d="M353.803 48.9591C351.964 39.0447 352.605 31.2469 360.603 24.5213C366.595 19.4806 370.873 12.4208 376.057 6.37751C376.837 5.47241 378.481 4.65086 379.541 4.83188C380.641 5.02682 382.23 6.39144 382.355 7.39401C382.509 8.71685 381.854 10.6385 380.85 11.5157C374.691 16.8767 368.518 22.2795 361.997 27.167C355.559 31.9849 354.235 38.0839 356.256 46.3134C361.885 46.3134 367.821 46.3134 373.758 46.3134C388.821 46.3134 403.898 46.0349 418.962 46.4666C424.842 46.6337 429.274 45.1437 432.771 40.4929C436.422 35.6471 440.115 30.8292 444.03 26.1923C444.908 25.1479 446.748 24.3821 448.086 24.4656C449.061 24.5353 450.636 26.1784 450.677 27.167C450.719 28.4899 449.869 30.2444 448.824 31.1355C443.153 36.0092 437.356 40.7435 431.461 45.3526C429.566 46.8425 427.253 48.792 425.107 48.8059C401.488 49.0566 377.882 48.9591 353.817 48.9591H353.803Z" fill="#141414"/>
<path d="M527.235 425.607C543.97 425.607 558.713 425.76 573.429 425.509C577.874 425.44 582.291 424.075 586.764 423.615C588.13 423.476 589.969 424.033 590.917 424.966C591.627 425.676 591.836 427.904 591.251 428.684C590.443 429.742 588.631 430.689 587.308 430.62C576.397 429.993 565.5 428.949 554.589 428.392C547.97 428.043 541.323 428.322 533.854 429.868C544.667 440.492 555.857 450.755 566.141 461.88C571.701 467.882 577.484 470.681 585.524 469.678C593.843 468.648 602.204 467.952 610.565 467.353C611.902 467.255 613.728 468.077 614.564 469.093C615.191 469.845 615.066 471.948 614.425 472.839C613.784 473.744 612.056 474.371 610.857 474.301C600.183 473.647 589.481 473.104 578.863 471.864C575.324 471.447 571.241 469.957 568.719 467.562C556.149 455.586 544.012 443.166 531.736 430.87C530.635 429.77 529.687 428.503 527.235 425.607Z" fill="#141414"/>
<path d="M254.295 86.8203C261.444 79.3427 268.578 71.8652 275.95 64.1649C274.556 64.0395 272.675 63.7332 270.794 63.7193C252.985 63.6914 235.163 63.6218 217.354 63.7889C214.734 63.8167 212.156 65.2231 209.509 65.5434C208.115 65.7105 206.039 65.3206 205.314 64.3737C204.59 63.4408 204.618 61.0457 205.356 60.1267C206.095 59.1938 208.157 58.8596 209.565 59.0127C214.024 59.5001 218.455 60.8786 222.9 60.9204C242.492 61.1432 262.085 61.0179 281.942 61.0179C271.24 71.3917 261.026 81.2782 251.383 90.6356C250.561 87.043 249.279 82.0998 248.401 77.1009C248.22 76.0983 249.306 74.3577 250.282 73.8286C251.257 73.2994 253.306 73.369 254.002 74.0653C254.936 74.9843 255.619 76.892 255.368 78.1591C254.811 80.9023 253.598 83.5201 252.651 86.1937C253.208 86.4025 253.752 86.6114 254.309 86.8203H254.295Z" fill="#141414"/>
<path d="M580.549 296.999C579.853 296.999 579.142 296.888 578.459 296.999C564.19 299.464 552.875 294.938 544.305 283.158C542.981 281.334 540.097 280.735 538.188 279.231C536.892 278.215 535.429 276.711 535.22 275.263C535.08 274.288 537.352 271.907 537.937 272.088C539.609 272.603 541.17 273.926 542.41 275.276C548.137 281.445 553.613 287.837 559.494 293.838C560.483 294.855 563.005 294.506 564.831 294.52C574.111 294.576 583.406 294.089 592.645 294.66C599.487 295.091 604.419 292.919 608.976 287.934C615.846 280.415 623.399 273.522 630.422 266.142C632.693 263.747 634.059 260.53 636.149 257.926C637.166 256.659 638.783 255.531 640.329 255.169C641.082 255.002 643.116 256.812 643.074 257.648C642.991 259.221 642.21 261.199 641.026 262.187C637.25 265.362 632.902 267.882 629.251 271.169C624.095 275.82 618.744 280.47 614.564 285.943C607.332 295.384 598.274 298.795 586.792 297.013C584.758 296.693 582.626 296.971 580.535 296.971L580.549 296.999Z" fill="#141414"/>
<path d="M105.528 148.089C107.771 150.191 109.416 151.653 110.976 153.199C120.828 163.002 130.569 172.93 140.588 182.566C143.639 185.504 147.527 187.565 150.844 190.252C151.945 191.144 152.99 192.703 153.073 194.012C153.143 195.001 151.736 196.811 150.788 196.95C149.478 197.131 147.527 196.519 146.649 195.53C140.95 189.055 135.669 182.218 129.886 175.827C123.086 168.321 115.923 161.136 108.928 153.826C108.343 154.118 107.757 154.41 107.172 154.703C107.172 166.831 107.158 178.946 107.2 191.074C107.2 191.951 107.339 193.149 107.897 193.664C116.313 201.364 124.828 208.967 133.258 216.64C134.359 217.642 136.003 218.965 135.947 220.065C135.892 221.249 134.317 222.767 133.049 223.337C132.171 223.741 130.234 223.17 129.524 222.377C122.918 214.871 116.871 206.837 109.848 199.749C105.709 195.572 104.107 191.436 104.302 185.727C104.678 174.392 104.427 163.03 104.483 151.681C104.483 150.874 104.929 150.052 105.514 148.103L105.528 148.089Z" fill="#141414"/>
<path d="M574.725 194.472C562.253 206.823 549.684 219.09 537.352 231.581C534.704 234.254 533.032 237.875 530.593 240.799C529.59 242.01 527.848 242.971 526.315 243.208C525.507 243.333 523.528 241.467 523.64 240.771C523.905 239.239 524.866 237.527 526.078 236.524C529.172 233.948 532.892 232.054 535.777 229.283C547.008 218.45 558.017 207.38 570.558 194.959C561.291 194.959 554.213 194.945 547.134 194.987C546.242 194.987 545.016 195.015 544.514 195.558C536.738 203.913 529.088 212.365 521.341 220.734C520.198 221.973 518.777 223.463 517.313 223.686C516.38 223.825 514.429 222.001 514.192 220.803C513.955 219.675 515.042 217.837 516.101 216.946C521.619 212.24 528.141 208.452 532.739 203.008C539.929 194.5 548.053 190.489 559.201 192.077C564.092 192.773 569.151 192.188 574.139 192.188C574.334 192.94 574.543 193.706 574.738 194.458L574.725 194.472Z" fill="#141414"/>
<path d="M250.589 603.48C250.589 593.232 250.366 584.209 250.756 575.213C250.853 573.055 252.609 570.618 254.239 568.919C261.639 561.247 269.359 553.909 276.744 546.222C278.695 544.189 279.67 541.237 281.412 538.953C282.276 537.826 283.795 536.726 285.119 536.572C286.066 536.461 287.906 537.812 288.087 538.759C288.352 540.067 287.892 542.128 286.944 542.964C279.461 549.606 272.299 556.777 264.077 562.375C249.641 572.206 253.473 586.311 253.501 601.726C267.477 600.64 281.05 599.526 294.636 598.607C296.016 598.509 297.855 599.192 298.747 600.166C299.402 600.89 299.332 602.979 298.747 603.94C298.162 604.873 296.49 605.68 295.333 605.625C284.38 605.012 273.442 604.149 262.503 603.494C258.866 603.271 255.201 603.466 250.589 603.466V603.48Z" fill="#141414"/>
<path d="M544.486 535.096C545.615 542.936 546.841 550.762 547.761 558.615C547.914 559.952 547.134 561.804 546.131 562.709C545.406 563.363 543.135 563.363 542.424 562.709C541.435 561.79 540.738 559.966 540.807 558.573C541.393 544.872 542.312 531.184 542.73 517.482C542.786 515.588 541.03 513.29 539.525 511.773C526.19 498.266 512.771 484.856 499.24 471.558C497.554 469.901 494.809 469.372 492.956 467.84C491.757 466.852 490.837 465.042 490.656 463.496C490.559 462.716 492.538 460.864 493.332 460.989C494.851 461.254 496.537 462.298 497.54 463.524C499.644 466.114 500.982 469.4 503.295 471.753C515.126 483.798 526.97 495.871 539.261 507.442C544.068 511.968 546.367 516.632 545.657 523.163C545.225 527.048 545.573 531.017 545.573 534.957C545.211 534.999 544.862 535.055 544.5 535.096H544.486Z" fill="#141414"/>
<path d="M191.352 90.5659H222.97C223.276 91.1925 223.889 91.8191 223.82 92.3622C221.98 106.482 229.714 114.405 241.378 120.003C242.451 120.518 243.273 122.593 243.287 123.943C243.287 124.848 241.489 126.603 240.737 126.478C239.204 126.241 237.448 125.294 236.445 124.083C234.327 121.52 233.128 118.011 230.676 115.951C223.694 110.102 219.235 103.46 221.757 93.4066H194.905C194.905 106.621 194.515 119.738 195.24 132.813C195.379 135.389 199.768 137.715 202.151 140.207C203.433 141.53 204.952 142.797 205.663 144.399C205.886 144.886 203.377 147.476 202.764 147.253C201.162 146.682 199.671 145.29 198.556 143.897C185.611 127.647 195.588 108.821 191.352 90.552V90.5659Z" fill="#141414"/>
<path d="M110.517 311.48C108.621 312.218 106.698 313.667 104.845 313.569C100.846 313.346 96.9162 311.815 92.9309 311.745C79.7347 311.466 66.5385 311.383 53.3562 311.745C50.2906 311.829 46.6118 313.263 44.3544 315.31C36.8296 322.147 30.0155 329.777 22.4768 336.6C20.0382 338.814 16.2619 339.636 13.0012 340.806C10.4929 341.697 7.85926 342.393 5.22559 342.644C3.67884 342.797 1.75584 342.282 0.529586 341.363C-0.125347 340.875 -0.181085 338.202 0.445978 337.714C1.64437 336.754 4.01327 335.751 5.04444 336.322C13.0848 340.694 18.812 337.673 24.3441 331.56C30.3917 324.876 36.8017 318.498 43.4765 312.441C45.6085 310.52 49.0504 309.169 51.9348 309.099C65.354 308.751 78.7871 309.099 92.2063 308.835C96.4424 308.751 100.651 307.359 104.901 307.094C106.671 306.983 108.524 308.236 110.335 308.876C110.405 309.754 110.461 310.631 110.53 311.508L110.517 311.48Z" fill="#141414"/>
<path d="M192.132 514.92C187.339 516.131 183.939 517.176 180.455 517.788C179.089 518.025 177.222 517.677 176.205 516.841C175.452 516.215 175.104 513.987 175.647 513.151C176.372 512.023 178.267 510.728 179.396 510.923C184.245 511.787 188.997 513.179 194.863 514.655C194.863 524.082 194.919 534.192 194.85 544.301C194.78 554.006 197.107 564.756 193.693 573.139C190.377 581.257 180.971 586.827 174.505 593.775C171.76 596.727 169.865 600.445 167.287 603.564C166.297 604.762 164.528 605.736 163.009 605.931C162.187 606.029 160.264 604.135 160.375 603.369C160.598 601.81 161.587 600.083 162.772 598.983C172.164 590.336 181.723 581.842 191.129 573.208C191.84 572.554 192.104 571.106 192.104 570.02C192.16 552.238 192.146 534.456 192.146 514.906L192.132 514.92Z" fill="#141414"/>
<path d="M514.359 119.822H530.928C530.928 129.694 531.109 139.539 530.76 149.356C530.705 150.999 528.489 152.698 527.04 154.16C518.888 162.403 510.597 170.493 502.543 178.834C500.564 180.881 499.449 183.75 497.637 186.005C496.606 187.286 495.046 188.721 493.596 188.874C492.579 188.985 490.405 186.98 490.447 186.019C490.517 184.571 491.841 182.886 493.109 181.884C495.896 179.656 499.31 178.166 501.86 175.729C509.231 168.683 516.073 161.066 523.598 154.201C527.43 150.706 528.768 147.002 528.531 142.045C528.238 135.835 528.461 129.597 528.461 122.746H515.627C516.505 131.17 517.453 139.65 518.233 148.158C518.372 149.592 518.303 151.681 517.425 152.419C516.491 153.213 514.317 153.213 513.049 152.684C512.185 152.322 511.405 150.442 511.489 149.3C512.088 140.903 512.91 132.521 513.69 124.138C513.816 122.801 514.094 121.479 514.359 119.822Z" fill="#141414"/>
<path d="M605.088 382.566C594.568 393.121 585.189 402.701 575.533 411.975C574.125 413.339 571.324 413.701 569.151 413.743C560.804 413.896 552.457 413.479 544.124 413.799C538.494 414.022 532.906 415.247 527.277 415.762C525.911 415.888 524.086 415.289 523.124 414.356C522.469 413.715 522.399 411.446 523.027 410.749C523.918 409.747 525.716 408.911 527.04 409.023C533.575 409.594 540.138 410.22 546.59 411.334C565.486 414.62 580.215 408.438 591.418 392.912C593.927 389.445 597.884 387.008 601.8 383.541C592.296 374.281 583.74 365.828 575.017 357.557C573.805 356.415 571.798 355.399 570.21 355.482C561.347 355.942 552.499 356.833 543.636 357.376C542.243 357.46 540.431 356.944 539.483 356.025C538.801 355.357 538.661 353.06 539.274 352.363C540.152 351.347 541.978 350.567 543.329 350.664C551.035 351.221 558.699 352.461 566.405 352.684C571.547 352.837 575.547 353.965 579.295 357.808C587.517 366.232 596.24 374.155 605.088 382.58V382.566Z" fill="#141414"/>
<path d="M559.814 101.316C561.11 102.457 563.061 103.377 563.173 104.49C563.312 105.925 562.378 107.986 561.208 108.919C559.341 110.422 556.763 110.993 554.756 112.358C547.231 117.482 543.901 124.445 545.531 133.649C547.594 145.331 543.664 154.243 534.244 161.916C525.312 169.184 517.648 178.013 509.636 186.354C507.336 188.749 505.901 191.937 503.853 194.597C502.961 195.753 501.484 197.229 500.327 197.187C499.129 197.145 497.303 195.599 497.011 194.402C496.732 193.26 497.707 191.297 498.739 190.419C504.076 185.922 509.719 181.786 515.014 177.247C518.345 174.392 520.909 170.591 524.42 168.029C539.219 157.181 546.34 143.326 543.093 124.695C542.703 122.481 544.417 119.515 545.894 117.44C549.266 112.664 553.084 108.194 556.791 103.669C557.473 102.833 558.533 102.29 559.787 101.316H559.814Z" fill="#141414"/>
<path d="M455.652 586.367C465.713 576.104 474.436 567.234 483.661 557.821C470.047 544.3 456.335 530.599 442.498 517.022C441.481 516.033 439.363 516.214 438.262 515.254C437.049 514.209 435.795 512.483 435.781 511.048C435.781 510.046 437.732 508.277 438.931 508.194C440.087 508.096 441.662 509.475 442.54 510.617C444.574 513.249 445.898 516.507 448.211 518.818C461.24 531.88 474.478 544.746 487.27 557.306C476.596 568.167 466.744 578.193 456.293 588.832C450.148 582.774 444.1 576.494 437.69 570.632C434.067 567.318 429.748 564.784 425.929 561.665C424.843 560.787 423.895 559.102 423.867 557.766C423.839 556.805 425.372 555.106 426.347 554.995C427.657 554.841 429.566 555.496 430.43 556.498C438.749 566.148 446.901 575.951 455.68 586.367H455.652Z" fill="#141414"/>
<path d="M487.34 42.7488C487.897 44.7122 488.998 46.7173 488.886 48.6528C488.705 51.953 487.256 55.2113 487.214 58.4976C487.033 77.6857 487.27 96.8878 486.963 116.076C486.922 118.917 485.459 122.3 483.549 124.431C477.836 130.78 471.454 136.531 465.574 142.742C463.456 144.984 462.174 147.991 460.209 150.428C459.192 151.681 457.589 153.046 456.154 153.185C455.192 153.283 453.06 151.194 453.158 150.289C453.325 148.827 454.718 147.323 455.931 146.209C465.156 137.701 474.562 129.374 483.619 120.699C484.762 119.599 484.469 116.772 484.469 114.739C484.497 95.551 484.525 76.349 484.344 57.1608C484.316 54.3202 482.853 51.4935 482.741 48.6389C482.658 46.7034 483.772 44.7122 484.358 42.7488C485.347 42.7488 486.336 42.7488 487.326 42.7627L487.34 42.7488Z" fill="#141414"/>
<path d="M165.586 127.355C165.586 137.771 165.614 148.186 165.586 158.588C165.573 162.403 165.308 166.065 170.659 166.817C171.829 166.985 173.334 169.296 173.474 170.73C173.571 171.677 171.383 173.78 170.408 173.682C169 173.529 166.938 172.039 166.59 170.744C165.085 164.938 163.204 159.02 163.064 153.102C162.618 134.373 163.05 115.616 162.744 96.8878C162.702 94.0472 161.169 90.747 159.288 88.5191C155.428 83.9379 151.066 79.7187 146.566 75.7502C143.221 72.7982 139.264 70.5842 135.766 67.7853C134.693 66.922 133.732 65.2789 133.69 63.956C133.662 62.9813 135.083 61.2407 136.045 61.1015C137.369 60.9065 139.333 61.4774 140.197 62.4522C147.471 70.5842 154.759 78.7301 161.587 87.238C163.677 89.842 165.294 93.5459 165.461 96.8182C165.949 106.969 165.642 117.176 165.642 127.355H165.614H165.586Z" fill="#141414"/>
<path d="M440.199 143.744C437.69 141.085 435.823 139.998 435.837 138.912C435.837 137.45 437.008 135.682 438.178 134.596C448.378 125.085 458.774 115.783 468.848 106.148C470.033 105.02 469.894 102.235 469.894 100.216C469.963 82.1693 469.977 64.1091 469.824 46.0627C469.796 43.6677 468.43 41.3144 468.18 38.8915C468.026 37.3181 468.416 35.3965 469.28 34.1293C469.726 33.4888 472.29 33.3913 472.973 34.0179C473.949 34.9369 474.576 36.7889 474.464 38.1675C473.99 44.0437 472.694 49.8781 472.583 55.7404C472.304 70.779 472.736 85.8315 472.332 100.87C472.248 104.142 470.604 108 468.403 110.45C461.923 117.677 454.691 124.236 447.988 131.268C445.87 133.496 444.407 136.378 442.735 139.01C441.899 140.333 441.244 141.781 440.199 143.758V143.744Z" fill="#141414"/>
<path d="M413.221 551.346C418.474 567.958 410.977 579.572 398.436 588.915C387.288 597.214 382.327 607.825 384.822 621.777C385.853 627.57 386.341 633.488 386.814 639.364C386.926 640.743 386.313 642.595 385.351 643.5C384.655 644.154 382.55 644.085 381.589 643.5C380.655 642.929 379.847 641.244 379.917 640.116C380.614 629.45 381.896 618.797 382.174 608.131C382.3 603.313 383.54 599.874 387.037 596.643C392.486 591.63 397.182 585.74 402.895 581.089C409.807 575.464 412.552 568.947 411.716 560.077C410.977 552.279 411.758 544.342 411.465 536.475C411.354 533.425 409.932 530.432 409.486 527.368C409.291 525.976 409.556 523.957 410.448 523.121C411.284 522.341 413.667 522.174 414.572 522.829C415.576 523.553 416.203 525.572 416.077 526.95C415.269 535.11 414.21 543.242 413.235 551.374L413.221 551.346Z" fill="#141414"/>
<path d="M208.728 559.548C213.118 572.902 203.977 579.084 196.536 586.228C191.533 591.032 186.6 595.919 181.89 601.03C179.8 603.299 178.56 606.307 176.595 608.702C175.578 609.941 173.92 611 172.387 611.32C171.676 611.473 169.697 609.593 169.781 608.8C169.948 607.24 170.826 605.444 171.983 604.358C183.186 593.9 195.003 584.028 205.468 572.888C208.213 569.964 206.917 563.252 207.614 557.014H230.564C231.721 557.014 232.947 556.777 234.034 557.056C249.585 561.052 258.406 550.957 267.24 541.112C268.509 539.692 268.522 537.171 269.749 535.681C270.557 534.693 272.564 534.108 273.901 534.275C274.877 534.4 276.201 536.002 276.34 537.074C276.479 538.16 275.657 539.775 274.737 540.555C268.871 545.526 263.088 550.622 256.831 555.05C253.724 557.251 249.711 559.186 246.032 559.353C234.076 559.896 222.078 559.548 208.715 559.548H208.728Z" fill="#141414"/>
<path d="M339.214 559.576C338.238 554.828 337.095 550.024 336.329 545.15C336.12 543.813 336.552 541.752 337.486 541.014C338.405 540.29 340.997 540.207 341.638 540.931C342.586 541.989 342.795 544.036 342.711 545.623C342.279 554.243 341.443 562.848 341.276 571.468C341.248 573.055 343.464 574.837 344.885 576.285C352.034 583.526 359.489 590.489 366.345 597.994C368.407 600.25 369.814 603.87 369.995 606.962C370.497 615.024 369.982 623.142 370.246 631.232C370.358 634.546 371.64 637.805 371.974 641.133C372.127 642.692 371.668 644.586 370.79 645.853C370.344 646.48 367.696 646.563 367.195 645.951C366.219 644.753 365.578 642.887 365.634 641.328C366.122 628.781 366.902 616.249 367.264 603.689C367.306 602.241 365.481 600.57 364.226 599.289C358.889 593.831 353.72 588.163 347.979 583.164C340.746 576.87 335.256 570.228 339.228 559.576H339.214Z" fill="#141414"/>
<path d="M464.292 488.853C465.894 490.273 467.19 491.095 468.068 492.25C470.367 495.286 472.081 498.851 474.729 501.524C491.632 518.665 508.632 535.695 525.8 552.586C529.297 556.025 531.652 559.367 531.22 564.575C531.025 566.887 532.683 569.282 532.948 571.704C533.101 573.069 532.516 575.13 531.527 575.798C530.579 576.439 528.21 576.23 527.332 575.436C526.441 574.629 525.883 572.192 526.454 571.245C531.164 563.545 528.015 558.184 522.274 552.586C504.87 535.626 487.855 518.248 470.562 501.162C468.709 499.338 465.894 498.517 463.832 496.859C462.592 495.871 461.324 494.2 461.212 492.752C461.128 491.693 462.912 490.496 464.306 488.839L464.292 488.853Z" fill="#141414"/>
<path d="M61.0342 487.488V442.08C49.329 443.013 38.5157 443.918 27.6884 444.711C26.2252 444.823 24.4137 444.725 23.3407 443.946C22.5604 443.389 22.1145 441.133 22.6301 440.339C23.3547 439.225 25.1244 438.055 26.3785 438.125C37.5402 438.766 48.688 439.657 59.8498 440.492C60.5326 440.548 61.2014 440.715 62.8597 440.994V480.567C63.5843 480.971 64.3089 481.361 65.0335 481.765C71.7918 474.608 78.4248 467.325 85.3225 460.307C96.6932 448.736 108.301 437.387 119.658 425.816C121.483 423.964 122.403 421.248 124.047 419.174C125.078 417.879 126.583 416.458 128.046 416.208C128.952 416.054 131.112 418.088 131.07 419.062C131.014 420.51 129.76 422.223 128.534 423.226C126.305 425.05 123.35 426.08 121.33 428.071C103.173 445.979 85.1692 464.025 67.0958 482.016C65.5491 483.561 63.8351 484.954 61.0063 487.488H61.0342Z" fill="#141414"/>
<path d="M58.2472 508.194C56.8538 507.052 54.8332 506.189 54.7218 505.13C54.5685 503.668 55.4464 501.58 56.6029 500.605C60.1981 497.583 64.5597 495.383 67.8762 492.111C86.3536 473.939 104.664 455.6 122.877 437.178C125.343 434.686 126.876 431.274 129.064 428.461C129.955 427.32 131.363 426.108 132.673 425.927C133.578 425.802 135.432 427.25 135.599 428.197C135.836 429.534 135.32 431.539 134.359 432.458C118.849 447.093 103.131 461.518 87.6356 476.167C80.5707 482.837 73.7706 489.799 67.0958 496.859C64.8244 499.254 63.3892 502.415 61.4383 505.13C60.6858 506.175 59.5571 506.955 58.2194 508.194H58.2472Z" fill="#141414"/>
<path d="M177.556 548.534C176.302 548.854 175.661 548.812 175.494 549.077C168.555 559.632 158.159 560.37 146.928 559.646C138.888 559.13 130.778 559.548 121.051 559.548C121.929 563.656 122.807 566.942 123.281 570.298C123.504 571.913 123.476 574.002 122.598 575.172C122.026 575.937 119.003 576.049 118.403 575.339C117.456 574.211 117.163 572.08 117.428 570.507C118.125 566.302 119.281 562.18 120.494 557C131.237 557 142.552 556.415 153.77 557.209C161.322 557.738 166.701 555.468 171.119 549.717C173.223 546.974 175.494 544.37 177.682 541.697C178.448 542.073 179.201 542.435 179.967 542.811C179.967 552.809 180.148 562.82 179.786 572.818C179.73 574.448 177.375 576.035 176.051 577.595C170.004 584.682 163.984 591.812 157.797 598.788C156.891 599.818 155.108 600.626 153.784 600.542C152.794 600.487 151.192 598.844 151.164 597.869C151.108 596.546 151.986 594.819 153.017 593.9C160.5 587.258 168.164 580.811 175.675 574.183C176.623 573.348 177.473 571.844 177.501 570.632C177.668 563.336 177.584 556.039 177.584 548.548L177.556 548.534Z" fill="#141414"/>
<path d="M452.921 51.9668C450.399 55.8796 448.086 59.9595 445.229 63.6078C444.281 64.8192 441.912 64.9306 440.198 65.5433C439.794 63.7609 438.484 60.8785 439.112 60.3912C444.825 55.796 450.872 51.6187 456.864 47.2881C460.808 64.304 450.092 78.1033 433.064 78.1033C421.024 78.1033 408.985 77.8945 396.945 78.1451C392.974 78.2287 389.058 79.649 385.073 80.1642C383.679 80.3452 381.617 80.0528 380.85 79.1477C380.084 78.2426 379.945 75.8615 380.627 74.9146C381.338 73.9399 383.4 73.4386 384.794 73.5639C389.95 74.0373 395.064 75.2766 400.22 75.4437C409.709 75.764 419.255 74.9424 428.688 75.7083C437.746 76.4463 444.435 73.8702 450.496 66.9497C454.426 62.466 456.265 58.4278 452.949 51.9668H452.921Z" fill="#141414"/>
<path d="M254.699 107.415C256.594 108.556 259.339 109.907 261.68 111.745C263.06 112.831 264.286 114.614 264.663 116.285C264.816 117.009 262.433 119.209 261.569 119.028C260.106 118.708 258.671 117.218 257.709 115.881C255.48 112.79 253.543 109.489 251.634 106.51C266.39 91.9304 281.44 77.0728 296.698 62.0063C296.824 64.6938 296.921 68.0079 297.117 71.3219C297.855 83.3946 298.677 95.4673 299.304 107.554C299.36 108.696 298.566 110.395 297.646 110.951C296.685 111.522 294.58 111.55 293.87 110.868C292.922 109.963 292.337 108.111 292.448 106.732C293.424 93.671 294.58 80.6097 295.793 66.2255C281.273 80.7768 268.327 93.7685 254.713 107.401L254.699 107.415Z" fill="#141414"/>
<path d="M161.504 184.028C159.274 186.632 158.494 188.401 157.281 188.749C156.111 189.083 154.049 188.414 153.185 187.454C144.74 178.152 136.756 168.433 128.074 159.368C116.076 146.849 103.661 134.735 91.2447 122.634C88.7225 120.184 85.2667 118.722 82.4937 116.48C81.2395 115.463 80.2223 113.764 79.9018 112.205C79.7625 111.509 81.5322 109.74 82.5355 109.643C83.8593 109.531 85.7405 110.2 86.6044 111.202C91.4676 116.87 95.6759 123.136 100.86 128.455C116.369 144.343 132.157 159.952 148.015 175.492C150.69 178.124 154.202 179.92 157.379 181.995C158.522 182.747 159.831 183.207 161.49 184.014L161.504 184.028Z" fill="#141414"/>
<path d="M500.452 451.855C501.846 453.094 502.933 453.888 503.811 454.863C512.241 464.15 520.546 473.564 529.158 482.684C530.3 483.896 532.99 483.979 534.955 483.993C554.867 484.077 574.78 484.104 594.707 483.951C597.09 483.937 599.431 482.573 601.855 482.225C603.249 482.03 605.339 482.113 606.064 482.977C606.872 483.91 607.053 486.221 606.426 487.279C605.841 488.254 603.764 488.908 602.427 488.783C596.797 488.282 591.209 486.903 585.594 486.82C568.454 486.555 551.314 486.903 534.188 486.597C531.332 486.541 527.973 485.051 525.8 483.144C520.24 478.27 515.376 472.617 509.914 467.618C506.625 464.624 502.598 462.466 499.17 459.597C498 458.622 497.052 456.589 497.15 455.127C497.219 454.041 499.142 453.066 500.438 451.855H500.452Z" fill="#141414"/>
<path d="M92.5128 164.241C92.5128 164.937 92.6243 165.648 92.4989 166.316C88.7225 186.117 96.2055 201.086 112.049 212.671C118.069 217.071 123.741 221.987 129.454 226.791C130.373 227.57 131.237 229.116 131.126 230.216C131.014 231.33 129.746 233.099 128.855 233.182C127.517 233.307 125.664 232.583 124.73 231.581C114.418 220.539 104.079 209.51 94.1432 198.12C91.9693 195.627 90.3111 191.798 90.2275 188.54C89.8095 173.738 89.5308 158.88 90.2275 144.092C90.7152 133.593 83.9708 129.193 76.8501 124.389C75.2337 123.303 74.0493 121.409 73.1017 119.641C72.9205 119.306 75.3452 116.911 75.6657 117.078C77.4215 118.053 79.0518 119.376 80.4035 120.88C81.574 122.189 81.9642 124.403 83.3019 125.336C91.6767 131.198 93.6972 139.274 92.6243 148.938C92.0669 153.965 92.5267 159.117 92.5267 164.213L92.5128 164.241Z" fill="#141414"/>
<path d="M589.816 311.647C577.762 311.647 565.695 311.564 553.641 311.717C551.217 311.745 548.82 312.845 546.381 313.054C544.57 313.207 542.591 313.012 540.933 312.33C540.389 312.107 540.194 309.002 540.654 308.765C542.257 307.93 544.235 307.359 546.033 307.442C548.694 307.581 551.328 308.821 553.976 308.835C577.637 308.946 601.284 308.89 624.945 308.876C631.662 308.876 638.81 303.891 641.625 297.765C642.42 296.024 644.203 294.604 645.834 293.504C646.14 293.295 647.938 295.342 649.052 296.344C647.645 297.792 646.335 299.366 644.802 300.675C643.437 301.844 641.388 302.415 640.399 303.794C635.396 310.798 628.652 312.302 620.431 311.787C610.272 311.16 600.03 311.634 589.83 311.634L589.816 311.647Z" fill="#141414"/>
<path d="M96.2195 557.223C95.481 555.635 94.2408 554.173 94.3104 552.753C94.3801 551.221 95.3277 549.3 96.5261 548.339C99.2712 546.111 102.825 544.788 105.305 542.337C124.591 523.316 143.737 504.156 162.814 484.926C164.472 483.241 165.099 480.567 166.618 478.702C167.621 477.462 169.279 476.376 170.798 476.098C171.579 475.958 173.571 477.838 173.502 478.66C173.348 480.205 172.456 482.085 171.244 483.074C168.151 485.622 164.305 487.349 161.476 490.12C143.653 507.651 125.956 525.307 108.398 543.117C105.458 546.097 103.535 550.038 100.999 553.435C100.247 554.438 98.9925 555.064 96.2195 557.237V557.223Z" fill="#141414"/>
<path d="M62.9712 370.048C65.9811 380.185 60.9785 387.774 52.7849 394.29C49.0085 397.298 45.6363 400.891 42.4731 404.553C37.1222 410.722 31.3811 415.484 22.3792 413.882C20.8464 413.604 19.0349 415.414 17.307 415.526C15.7324 415.637 13.8233 415.122 12.5692 414.189C11.9561 413.729 11.97 411.014 12.5971 410.568C13.8512 409.663 16.1225 408.786 17.2791 409.343C25.6957 413.367 32.6352 411.947 38.6411 404.776C41.1633 401.782 43.8527 398.76 47.0019 396.491C58.5956 388.136 62.7064 377.219 61.0342 363.044C60.3375 357.195 59.9194 351.751 54.6939 348.826C45.065 343.424 47.0577 333.036 43.6576 325.001C43.351 324.277 44.633 322.314 45.6363 321.771C46.6118 321.242 48.6741 321.311 49.3569 321.994C50.2905 322.927 51.1824 325.196 50.6807 326.046C45.8036 334.317 48.6602 340.862 55.5718 345.693C64.295 351.806 63.849 360.342 62.9851 370.02L62.9712 370.048Z" fill="#141414"/>
<path d="M207.279 47.2602C201.246 42.9436 196.076 39.4067 191.101 35.5913C190.042 34.7698 189.248 32.9735 189.248 31.6367C189.248 30.7038 190.711 29.2417 191.756 28.9911C192.857 28.7126 194.78 29.186 195.435 30.0354C199.936 35.9395 204.214 42.0245 209.007 48.6805C199.908 57.7315 190.544 67.2978 180.873 76.5577C177.57 79.7186 164.43 78.3818 160.779 75.3045C155.233 70.6118 149.464 66.2117 143.96 61.4773C142.943 60.6 142.218 58.7202 142.343 57.3834C142.427 56.4226 144.155 54.9048 145.13 54.9188C146.468 54.9188 148.168 55.8378 149.074 56.91C153.603 62.2431 157.7 67.9522 162.382 73.1322C165.405 76.4741 176.651 76.9615 179.842 73.9538C188.732 65.5711 197.386 56.9378 207.265 47.2741L207.279 47.2602Z" fill="#141414"/>
<path d="M529.45 538.355C528.35 530.78 527.068 523.219 526.301 515.602C526.148 514.126 528.043 512.441 528.991 510.854C530.412 512.009 533.129 513.263 533.046 514.307C532.279 524.249 531.025 534.163 529.785 545.261C522.204 537.241 511.084 532.423 513.69 518.693C516.24 505.27 511.335 495.035 500.48 487.154C495.38 483.45 490.489 479.44 485.612 475.415C484.65 474.622 483.494 473.02 483.717 472.115C484.051 470.82 485.375 469.358 486.643 468.857C487.521 468.509 489.374 469.33 490.141 470.194C497.582 478.521 505.065 486.806 512.102 495.467C514.22 498.057 515.599 501.649 516.171 504.991C516.867 509.043 516.923 513.388 516.24 517.44C514.498 527.661 519.849 533.801 529.45 538.355Z" fill="#141414"/>
<path d="M395.83 90.4128H455.875C454.941 85.8316 454.078 82.4061 453.632 78.9389C453.423 77.3654 453.534 75.2767 454.44 74.2045C455.053 73.4665 457.993 73.4526 458.62 74.2045C459.54 75.2767 459.707 77.3793 459.484 78.9528C458.885 83.1859 457.924 87.3633 456.878 92.6546H401.418C403.829 95.2307 404.721 96.4839 405.891 97.403C412.106 102.263 415.659 108.083 414.336 116.424C413.987 118.638 415.868 121.131 416.064 123.553C416.161 124.835 415.088 126.478 414.071 127.466C413.541 127.981 411.507 127.87 410.991 127.299C410.044 126.227 408.831 124.124 409.291 123.303C415.646 111.704 410.127 103.794 401.488 96.6371C399.816 95.2446 398.52 93.4066 395.83 90.4128Z" fill="#141414"/>
<path d="M530.273 107.415C519.195 104.435 512.06 109.963 505.051 117.607C494.572 129.026 483.159 139.581 472.29 150.637C470.618 152.336 469.852 154.898 468.347 156.805C467.33 158.1 465.811 159.549 464.361 159.757C463.4 159.897 461.198 157.878 461.254 156.917C461.338 155.441 462.606 153.714 463.874 152.698C466.257 150.776 469.378 149.662 471.524 147.545C484.581 134.735 497.303 121.59 510.527 108.96C513.022 106.565 517.174 105.187 520.727 104.769C526.678 104.087 532.753 104.393 538.773 104.63C543.803 104.825 547.064 103.112 548.736 98.0991C549.238 96.5813 551.203 95.1888 552.819 94.5761C553.46 94.3394 556.052 96.7901 555.871 97.3053C555.258 98.9345 553.92 100.424 552.554 101.594C546.061 107.136 538.466 108.598 530.287 107.401L530.273 107.415Z" fill="#141414"/>
<path d="M400.345 63.6218C394.785 63.6218 389.211 63.3711 383.665 63.7192C379.178 63.9977 374.747 65.1395 370.26 65.5991C368.867 65.7383 367.041 65.3066 366.052 64.4294C365.341 63.8028 365.132 61.5609 365.703 60.809C366.54 59.7229 368.309 58.6924 369.633 58.7481C382.871 59.3747 396.165 59.6532 409.305 61.1849C421.972 62.661 431.684 59.0684 439.209 48.7224C443.863 42.331 449.131 36.3851 454.259 30.3558C455.025 29.4507 456.823 28.5873 457.784 28.8798C459.08 29.2836 460.515 30.6621 460.933 31.9293C461.226 32.8204 460.195 34.5471 459.275 35.3547C450.427 43.2361 441.244 50.7693 432.646 58.9291C429.19 62.2154 426.069 64.0395 421.164 63.7053C414.238 63.2458 407.271 63.5939 400.317 63.5939L400.345 63.6218Z" fill="#141414"/>
<path d="M148.28 115.561C148.28 108.264 148.405 100.968 148.168 93.6711C148.126 92.2925 146.97 90.6355 145.855 89.6608C139.696 84.3137 133.328 79.1894 127.168 73.8285C126.137 72.9373 125.301 71.1828 125.371 69.8739C125.413 68.8852 126.918 67.437 127.991 67.1864C129.05 66.9358 130.819 67.5902 131.572 68.4535C137.369 75.1374 143.026 81.9465 148.628 88.7975C149.603 89.995 150.718 91.5406 150.746 92.947C150.927 102.36 150.844 111.787 150.049 121.493C142.692 114.21 131.892 109.977 133.411 96.3307C134.331 88.1291 126.416 84.8707 120.828 80.6794C119.254 79.4958 117.985 77.797 117.024 76.0842C116.871 75.8197 119.63 73.1601 120.145 73.4246C121.72 74.2044 122.974 75.764 124.131 77.2121C124.967 78.2426 125.162 79.9135 126.137 80.6933C133.592 86.6391 137.341 93.5875 136.992 103.808C136.853 107.86 143.152 112.121 146.524 116.299C147.109 116.062 147.708 115.825 148.294 115.588L148.28 115.561Z" fill="#141414"/>
<path d="M63.3751 325.113C68.2244 339.58 72.2933 352.057 76.7106 364.422C77.1844 365.759 79.7484 367.263 81.2673 367.179C90.5618 366.706 99.8284 365.759 109.109 365.118C110.335 365.035 112.244 365.452 112.746 366.288C113.429 367.444 113.54 369.421 112.997 370.646C112.607 371.496 110.684 372.15 109.499 372.08C99.9399 371.524 90.3946 370.925 80.8771 369.978C78.7591 369.769 75.4705 368.599 74.927 367.082C69.9105 353.213 65.3956 339.177 60.2119 323.678C65.953 323.678 70.663 323.915 75.345 323.623C85.3363 322.996 95.3135 322.035 105.305 321.381C106.461 321.311 108.133 322.077 108.747 322.996C109.346 323.887 109.415 325.976 108.788 326.658C107.883 327.633 106.071 328.357 104.706 328.274C91.3282 327.355 77.9648 326.254 63.3751 325.113Z" fill="#141414"/>
<path d="M311.79 0C312.361 2.0887 313.448 4.20524 313.392 6.28002C313.309 9.13457 311.86 11.9613 311.846 14.8019C311.706 40.7017 311.678 66.6155 311.846 92.5154C311.874 96.7345 313.267 100.926 313.713 105.159C313.866 106.537 313.448 108.626 312.501 109.295C311.511 110.005 309.17 109.963 308.195 109.225C307.289 108.543 306.969 106.468 307.122 105.089C307.554 101.316 308.933 97.5839 308.961 93.8243C309.128 68.8435 309.142 43.8626 308.947 18.8818C308.906 14.4538 307.359 10.0397 307.066 5.58378C306.941 3.80143 308.32 1.90768 309.017 0.0696232C309.937 0.0417739 310.856 0.0278493 311.776 0L311.79 0Z" fill="#141414"/>
<path d="M272.104 585.754H295.695C294.567 571.078 293.424 557 292.476 542.894C292.379 541.529 293.034 539.691 294.009 538.8C294.706 538.174 296.824 538.327 297.744 538.953C298.663 539.58 299.374 541.251 299.318 542.421C298.705 554.271 297.855 566.106 297.186 577.956C297.005 581.159 297.158 584.376 297.158 588.163H264.286C268.885 583.498 272.118 579.683 275.894 576.508C281.106 572.136 280.172 566.942 279.043 561.386C278.653 559.492 278.89 557.376 279.35 555.482C279.42 555.176 282.165 555.51 283.67 555.552C283.544 557.585 283.433 559.631 283.279 561.664C283.265 561.859 282.889 562.068 282.917 562.235C284.45 572.4 278.625 578.959 270.808 584.584C271.24 584.974 271.672 585.35 272.09 585.74L272.104 585.754Z" fill="#141414"/>
<path d="M559.09 471.837C549.461 471.837 539.818 472.143 530.231 471.6C528.015 471.475 526.023 468.356 523.821 466.768C520.365 464.276 516.7 462.048 513.37 459.402C512.325 458.567 511.503 456.743 511.572 455.42C511.628 454.431 513.217 452.83 514.22 452.774C515.544 452.691 517.829 453.512 518.177 454.487C522.985 468.022 533.227 471.141 546.144 469.637C548.611 469.344 551.147 469.595 554.854 469.595C553.335 467.59 552.596 466.337 551.593 465.334C542.953 456.617 534.356 447.845 525.521 439.337C522.971 436.886 519.529 435.382 516.742 433.14C515.488 432.124 514.22 430.369 514.15 428.893C514.108 427.919 516.101 426.108 517.299 425.997C518.498 425.886 520.17 427.181 521.076 428.322C523.709 431.65 525.66 435.619 528.614 438.599C538.996 449.098 549.684 459.291 560.246 469.595C559.87 470.333 559.494 471.085 559.118 471.823L559.09 471.837Z" fill="#141414"/>
<path d="M454.161 570.186C456.349 561.637 454.412 557.139 449.674 553.073C444.072 548.269 439.251 542.546 433.816 537.547C431.573 535.486 428.438 534.4 425.985 532.52C424.884 531.671 423.909 530.014 423.839 528.677C423.783 527.744 425.274 526.004 426.222 525.892C427.574 525.725 429.552 526.31 430.43 527.298C436.924 534.595 442.442 542.992 449.8 549.258C457.882 556.15 459.052 563.934 457.157 574.489C455.123 572.762 453.45 571.523 451.973 570.075C446.204 564.408 440.603 558.531 434.694 553.017C432.27 550.762 429.079 549.341 426.501 547.225C425.261 546.208 423.965 544.495 423.923 543.061C423.895 542.073 425.901 540.318 427.128 540.207C428.312 540.095 429.929 541.404 430.862 542.518C438.359 551.277 445.731 560.133 454.189 570.2L454.161 570.186Z" fill="#141414"/>
<path d="M515.655 570.089C516.491 573.723 517.731 578.277 518.484 582.9C518.693 584.125 517.787 586.005 516.784 586.826C516.004 587.453 513.76 587.425 513.077 586.757C512.13 585.838 511.572 584.014 511.67 582.635C512.185 575.631 513.203 568.669 513.495 561.664C513.579 559.743 512.13 557.334 510.667 555.844C494.405 539.413 478.017 523.093 461.588 506.829C460.209 505.465 458.105 504.866 456.586 503.613C455.206 502.457 453.799 501.037 453.172 499.435C452.963 498.906 455.262 496.511 456.21 496.622C457.673 496.803 459.233 498.196 460.251 499.463C461.923 501.538 462.843 504.267 464.682 506.133C479.16 520.768 493.569 535.486 508.451 549.689C514.192 555.176 518.386 560.564 515.683 570.061L515.655 570.089Z" fill="#141414"/>
<path d="M148.962 472.031C134.484 472.031 121.553 471.948 108.635 472.143C107.047 472.171 105.193 473.396 103.967 474.58C96.8186 481.5 89.7258 488.49 82.8281 495.676C81.351 497.221 81.0723 499.867 79.7207 501.594C78.8985 502.652 77.0591 503.432 75.7214 503.376C74.7599 503.334 73.3664 501.788 73.1295 500.702C72.8926 499.63 73.4918 497.89 74.3419 497.138C82.6888 489.73 91.4537 482.753 99.4941 475.011C103.465 471.182 107.27 469.33 112.844 469.511C125.092 469.901 137.355 469.636 150.189 469.636C151.039 478.256 152.836 486.095 144.671 492.487C138.692 497.165 133.634 503.042 128.381 508.598C126.583 510.505 125.622 513.179 123.95 515.24C122.932 516.493 121.358 517.871 119.936 517.997C118.975 518.08 117.108 516.159 116.968 514.975C116.829 513.805 118.069 512.148 119.142 511.174C128.423 502.707 138.219 494.77 146.858 485.705C149.241 483.199 148.252 477.476 148.976 472.018L148.962 472.031Z" fill="#141414"/>
<path d="M323.551 110.214C322.924 108.376 321.656 106.482 321.795 104.7C322.143 99.993 323.621 95.3421 323.732 90.6495C324.011 77.9085 323.579 65.1535 323.997 52.4264C324.094 49.3629 325.585 45.6451 327.717 43.4589C338.043 32.8344 348.898 22.7251 359.335 12.212C361.091 10.4435 361.523 7.44975 362.916 5.23573C363.516 4.27493 365.146 3.18881 366.052 3.38375C367.431 3.67617 369.02 4.77622 369.689 6.00158C370.093 6.72567 369.257 8.73082 368.379 9.48275C361.495 15.4007 354.444 21.1377 347.491 26.986C346.432 27.8772 345.721 29.214 344.592 29.9798C328.484 40.8271 323.384 55.9771 326.087 74.7476C327.062 81.5567 326.087 88.6305 326.352 95.5788C326.463 98.4334 327.926 101.246 328.038 104.101C328.121 106.176 327.007 108.306 326.435 110.423C325.474 110.367 324.512 110.297 323.565 110.242L323.551 110.214Z" fill="#141414"/>
<path d="M63.2637 189.25C72.795 183.401 76.6549 176.328 75.3451 166.065C74.4393 158.992 75.3451 151.709 75.0943 144.538C74.9967 141.906 73.6729 139.344 73.3385 136.698C73.1573 135.306 73.5196 133.454 74.3696 132.451C74.9828 131.727 77.2402 131.518 78.0624 132.089C79.1632 132.855 80.278 134.637 80.1944 135.891C79.5952 144.955 78.6755 153.993 77.8812 163.044C77.7837 164.199 77.6582 165.397 77.8812 166.511C80.7796 180.477 70.7466 186.98 60.7415 195.864C60.7415 187.69 60.7415 181.146 60.7415 174.587C60.7415 166.706 60.9644 158.824 60.6718 150.957C60.5603 147.88 59.0972 144.886 58.6791 141.795C58.498 140.444 58.9996 138.606 59.8775 137.603C60.5185 136.879 62.7481 136.587 63.4587 137.144C64.5317 137.965 65.549 139.748 65.4653 141.057C64.894 149.913 63.7932 158.741 63.3194 167.597C62.9571 174.476 63.2497 181.396 63.2497 189.222L63.2637 189.25Z" fill="#141414"/>
<path d="M31.4368 252.44C31.4368 236.023 31.5343 219.592 31.3532 203.175C31.3253 200.097 30.0015 197.034 29.681 193.929C29.5138 192.341 29.8064 190.294 30.754 189.166C31.3392 188.47 34.2934 188.54 34.8229 189.264C35.7008 190.461 35.8123 192.494 35.6311 194.11C35.2688 197.215 33.959 200.278 33.945 203.37C33.8335 237.137 33.9172 270.918 33.9172 304.685C33.9172 313.513 21.557 325.906 12.6945 326.296C10.2838 326.408 7.92886 327.633 5.50422 327.87C3.90172 328.023 1.81151 327.786 0.696729 326.839C-0.0139428 326.241 0.0975351 323.233 0.850011 322.69C2.03446 321.827 4.41731 321.423 5.67143 322.049C12.4577 325.433 17.3906 323.623 22.9505 318.638C29.5556 312.706 32.0499 306.356 31.6458 297.556C30.963 282.545 31.4507 267.493 31.4646 252.454L31.4368 252.44Z" fill="#141414"/>
<path d="M496.704 139.26C489.709 147.866 482.755 156.499 475.662 165.021C474.91 165.926 473.14 166.859 472.235 166.567C470.953 166.149 469.531 164.77 469.113 163.503C468.807 162.584 469.712 160.802 470.604 160.008C478.603 152.948 486.713 146.028 494.781 139.051C496.634 137.45 498.404 135.751 501.609 132.813C501.609 144.412 501.79 154.243 501.442 164.06C501.386 165.703 499.003 167.207 497.791 168.864C495.422 172.123 493.234 175.52 490.74 178.681C489.848 179.795 488.232 181.09 487.033 181.006C485.849 180.923 484.065 179.363 483.842 178.194C483.619 177.01 484.692 174.629 485.695 174.309C497.512 170.507 500.466 161.888 499.254 150.651C498.892 147.295 499.198 143.869 499.198 140.472C498.362 140.068 497.54 139.664 496.704 139.26Z" fill="#141414"/>
<path d="M499.212 106.482C499.212 93.852 499.352 81.2224 499.115 68.5927C499.045 65.0698 497.735 61.5747 497.275 58.0378C497.094 56.6315 497.22 54.5706 498.083 53.8048C498.989 53.011 501.372 52.8161 502.334 53.4706C503.309 54.1389 503.797 56.2137 503.713 57.6201C502.849 72.0043 501.818 86.3884 500.843 100.759C501.693 101.204 502.557 101.65 503.407 102.095C510.945 93.5596 518.442 85.0099 526.037 76.5159C527.151 75.2766 528.531 73.8145 529.994 73.536C530.844 73.3689 532.837 75.2487 532.99 76.3905C533.157 77.602 532.056 79.3843 530.983 80.3034C525.995 84.5225 520.532 88.2404 515.795 92.6963C510.792 97.4028 506.403 102.75 501.748 107.818C500.912 107.373 500.062 106.927 499.226 106.482H499.212Z" fill="#141414"/>
<path d="M207.265 545.108C207.265 533.746 207.126 523.177 207.419 512.608C207.46 511.063 209.397 509.378 210.833 508.208C211.195 507.916 213.996 509.475 213.954 510.046C213.815 511.801 212.965 513.569 212.142 515.198C211.404 516.66 209.606 517.927 209.551 519.32C209.286 526.7 209.425 534.094 209.425 542.351C223.193 542.351 236.556 542.783 249.85 541.989C252.567 541.822 254.964 536.962 257.57 534.345C258.894 533.022 260.217 531.476 261.862 530.85C262.461 530.627 265.067 533.175 264.844 533.76C264.244 535.403 262.656 536.684 261.43 538.09C261.318 538.216 260.886 538.062 260.761 538.188C249.348 549.94 234.745 543.646 221.534 545.039C217.006 545.512 212.393 545.108 207.265 545.108Z" fill="#141414"/>
<path d="M369.145 590.405C363.543 584.459 358.834 579.753 354.542 574.684C353.385 573.32 353.315 570.883 353.106 568.892C352.215 560.105 351.392 551.319 350.737 542.518C350.654 541.335 351.281 539.622 352.173 538.981C353.078 538.327 355.183 538.104 355.935 538.717C356.966 539.566 357.816 541.418 357.691 542.741C357.175 548.13 356.493 553.519 355.447 558.824C352.995 571.217 359.865 578.653 368.95 585.016C378.328 578.513 384.85 570.771 382.439 558.17C381.087 551.096 380.586 543.855 379.986 536.67C379.875 535.403 380.92 533.606 381.993 532.799C382.773 532.214 384.822 532.451 385.672 533.119C386.536 533.787 387.051 535.486 386.968 536.684C386.369 545.289 384.905 553.909 385.073 562.5C385.226 570.214 383.568 576.272 377.297 581.131C374.454 583.331 372.434 586.59 369.145 590.405Z" fill="#141414"/>
<path d="M367.78 32.7369C371.403 29.0051 375.207 25.4404 378.579 21.5136C381.937 17.6008 384.766 13.2284 388.055 9.246C388.932 8.18772 390.646 7.28262 391.97 7.29655C392.946 7.29655 394.632 8.85611 394.715 9.83083C394.827 11.1537 394.088 13.0474 393.043 13.8829C386.396 19.2717 379.568 24.4378 372.81 29.6735C373.117 30.3836 373.423 31.1077 373.73 31.8179C381.199 31.8179 389.406 33.7534 395.914 31.2469C401.836 28.9633 405.891 21.8478 410.824 16.9185C412.259 15.4842 413.764 14.0361 415.52 13.117C415.868 12.936 418.558 15.6513 418.307 16.2222C417.596 17.8793 416.05 19.2578 414.614 20.4971C410.503 24.0479 406.476 27.7379 402.059 30.871C399.634 32.5976 396.541 34.185 393.656 34.3382C385.24 34.7977 376.767 34.5053 368.323 34.5053C368.142 33.9205 367.947 33.3356 367.766 32.7508L367.78 32.7369Z" fill="#141414"/>
<path d="M620.904 262.452C625.196 256.701 629.404 250.88 633.849 245.269C634.672 244.224 636.525 243.473 637.849 243.528C638.81 243.584 640.218 245.088 640.468 246.16C640.719 247.246 640.162 249.056 639.298 249.78C632.567 255.517 625.698 261.059 618.842 266.643C618.521 266.908 617.992 266.908 616.988 267.186C616.696 265.696 616.166 264.262 616.166 262.828C616.138 245.492 616.027 228.155 616.361 210.819C616.417 207.589 617.992 204.205 619.608 201.295C620.193 200.236 622.952 200.376 624.722 199.972C624.722 201.782 625.098 205.054 624.652 205.166C616.027 207.422 618.605 214.3 618.535 219.842C618.368 233.656 618.479 247.469 618.479 261.268C619.288 261.658 620.096 262.048 620.918 262.438L620.904 262.452Z" fill="#141414"/>
<path d="M150.941 147.128C150.718 157.432 149.394 165.87 158.02 170.939C159.929 172.053 162.172 172.707 163.845 174.086C165.057 175.075 166.004 176.843 166.213 178.375C166.325 179.155 164.416 181.034 163.622 180.923C162.089 180.7 160.403 179.711 159.344 178.528C158.354 177.428 158.549 174.977 157.476 174.309C146.022 167.124 148.126 155.747 148.516 145.151C148.753 138.676 147.095 133.899 142.148 129.36C131.767 119.822 122.138 109.476 112.021 99.6448C109.82 97.5004 106.74 96.3029 104.315 94.3534C103.047 93.3369 101.737 91.6938 101.598 90.2317C101.514 89.3127 103.646 87.2518 104.622 87.3632C106.071 87.5164 107.66 88.881 108.677 90.1482C110.488 92.39 111.561 95.2724 113.554 97.3193C122.417 106.44 131.112 115.797 140.601 124.236C148.433 131.198 153.547 138.536 150.955 147.156L150.941 147.128Z" fill="#141414"/>
<path d="M122.612 398.705C120.87 399.624 119.086 401.406 117.414 401.308C109.262 400.849 101.096 400.194 93.0143 399.039C81.7132 397.423 72.8647 400.751 66.0088 410.067C61.1734 416.626 55.711 422.752 50.4158 428.949C49.6215 429.882 47.9354 430.912 47.0157 430.648C45.6919 430.258 44.2288 428.907 43.755 427.626C43.4206 426.735 44.3124 424.897 45.2042 424.103C54.0528 416.208 62.8874 408.257 72.0565 400.751C74.6483 398.635 78.2992 396.936 81.5739 396.727C90.1159 396.156 98.7136 396.685 107.283 396.435C110.363 396.337 113.401 394.945 116.494 394.75C118.459 394.639 120.48 395.655 122.472 396.17C122.528 397.02 122.57 397.869 122.626 398.718L122.612 398.705Z" fill="#141414"/>
<path d="M571.701 237.151V213.548C571.129 213.145 570.558 212.755 569.987 212.351C562.601 221.082 555.244 229.854 547.775 238.515C546.827 239.601 545.336 240.674 543.984 240.813C543.037 240.91 541.225 239.587 541.044 238.654C540.793 237.346 541.239 235.313 542.187 234.463C550.464 227.027 559.02 219.898 567.255 212.42C569.206 210.652 570.279 207.937 571.756 205.653C572.579 206.294 573.401 206.934 574.223 207.589V237.499C569.29 238.682 564.315 240.061 559.257 240.924C558.142 241.119 556.275 239.782 555.564 238.641C555.063 237.819 555.495 235.619 556.275 235.02C557.32 234.213 559.187 233.906 560.553 234.171C563.981 234.839 567.325 235.953 571.687 237.151H571.701Z" fill="#141414"/>
<path d="M16.7497 264.554C16.7497 256.701 16.9308 248.833 16.6661 240.98C16.5685 237.889 15.3562 234.853 14.9521 231.748C14.7709 230.355 14.8267 228.281 15.6628 227.571C16.5825 226.791 18.8956 226.638 19.9268 227.278C20.9301 227.905 21.6547 229.938 21.5293 231.261C21.0416 236.399 19.6342 241.495 19.5227 246.633C19.2301 260.962 19.2161 275.304 19.5227 289.619C19.6342 294.451 18.1292 297.806 14.7291 301.134C11.7332 304.073 9.76837 308.013 7.0929 311.327C6.21501 312.413 4.47317 313.639 3.34446 313.458C2.1182 313.263 0.418162 311.592 0.250945 310.38C0.097663 309.211 1.33785 307.442 2.46657 306.593C4.22235 305.284 6.59125 304.811 8.36096 303.516C14.7291 298.865 17.9063 292.975 16.889 284.62C16.0808 278.02 16.7218 271.238 16.7357 264.527L16.7497 264.554Z" fill="#141414"/>
<path d="M142.706 545.108C139.696 545.108 136.644 545.443 133.69 545.053C121.135 543.354 113.22 549.021 108.426 560.231C107.925 561.386 105.96 562.667 104.789 562.584C103.605 562.486 101.626 560.704 101.668 559.729C101.738 558.253 102.95 556.485 104.204 555.468C105.89 554.104 108.775 553.825 109.917 552.224C116.118 543.535 124.451 541.14 134.651 542.296C140.365 542.936 146.273 541.92 151.972 542.574C163.859 543.925 171.021 538.466 175.48 528.051C175.968 526.923 177.947 525.725 179.131 525.809C180.302 525.892 182.085 527.48 182.253 528.594C182.434 529.791 181.319 531.574 180.246 532.465C179.103 533.412 176.623 533.147 175.954 534.191C167.788 546.919 155.261 546 142.706 545.122V545.108Z" fill="#141414"/>
<path d="M397.168 641.773C396.29 640.032 394.604 638.25 394.674 636.551C395.092 627.472 396.318 618.435 396.527 609.356C396.652 604.232 397.461 600.166 401.641 596.601C406.908 592.118 411.716 587.063 416.384 581.939C419.227 578.806 421.331 575.004 423.978 571.676C424.87 570.562 426.529 569.239 427.685 569.365C428.897 569.49 430.625 571.133 430.834 572.345C431.029 573.514 429.859 575.269 428.8 576.23C419.673 584.487 410.42 592.605 401.265 600.834C400.457 601.558 399.537 602.77 399.579 603.717C400.053 614.397 400.805 625.063 401.237 635.73C401.321 637.679 400.262 639.67 399.746 641.634C398.882 641.675 398.032 641.731 397.168 641.773Z" fill="#141414"/>
<path d="M118.891 484.87C123.518 483.965 128.548 482.851 133.648 482.057C134.986 481.849 137.048 482.238 137.773 483.158C138.511 484.077 138.553 486.388 137.87 487.349C137.174 488.324 135.181 488.894 133.815 488.797C125.455 488.254 117.122 487.251 108.747 486.945C106.852 486.875 104.538 488.56 103.006 490.05C94.2407 498.586 85.5593 507.219 77.0591 516.02C75.4288 517.705 74.955 520.476 73.4779 522.369C72.6558 523.428 70.8303 524.221 69.4926 524.166C68.545 524.124 66.9425 522.522 66.9007 521.562C66.845 520.225 67.6393 518.429 68.6704 517.551C73.8123 513.193 79.3166 509.238 84.3888 504.796C88.5553 501.162 92.6382 497.319 96.1358 493.058C101.988 485.915 108.621 481.528 118.863 484.856L118.891 484.87Z" fill="#141414"/>
<path d="M117.33 384.738C115.31 385.281 113.275 386.367 111.283 386.298C100.344 385.88 89.4192 385.017 78.4804 384.738C76.8779 384.696 75.0385 386.771 73.6172 388.177C61.7727 399.888 49.4822 411.223 38.418 423.63C32.9556 429.756 25.3194 426.707 19.7315 430.648C19.411 430.87 17.2512 429.353 16.847 428.308C16.4429 427.25 16.7495 425.217 17.5159 424.618C18.5471 423.811 20.7906 423.24 21.7381 423.811C28.4965 427.946 33.1925 425.064 37.986 420.135C48.9527 408.856 60.3374 397.994 71.2343 386.646C74.6065 383.123 78.0484 381.675 82.7862 381.925C88.5552 382.232 94.366 382.273 100.135 381.953C103.911 381.744 107.632 380.408 111.408 380.157C113.345 380.032 115.38 381.187 117.372 381.772C117.372 382.761 117.344 383.749 117.344 384.738H117.33Z" fill="#141414"/>
<path d="M310.438 629.951C311.804 635.563 313.03 639.893 313.796 644.307C314.019 645.602 313.35 647.677 312.375 648.373C311.427 649.042 309.086 648.916 308.195 648.151C307.289 647.371 306.927 645.324 307.163 643.973C307.735 640.534 308.78 637.164 309.909 632.68C290.595 632.68 272.619 632.583 254.629 632.875C253.222 632.903 251.94 635.73 250.435 637.053C249.195 638.153 247.746 639.559 246.283 639.698C245.391 639.782 243.37 637.568 243.51 636.635C243.719 635.215 245.14 633.223 246.436 632.847C250.951 631.566 255.619 630.174 260.259 630.09C277.092 629.77 293.939 629.965 310.438 629.965V629.951Z" fill="#141414"/>
<path d="M427.476 603.466C428.758 612.657 430.026 620.468 430.779 628.336C430.918 629.756 428.883 631.385 427.852 632.917C426.417 631.72 423.672 630.411 423.769 629.352C424.605 620.12 425.943 610.93 427.239 600.932C441.271 600.932 455.791 600.779 470.298 601.071C472.82 601.127 475.495 602.701 477.725 604.149C478.965 604.956 479.857 606.906 480.066 608.451C480.177 609.259 478.296 611.181 477.571 611.069C476.025 610.805 473.516 609.663 473.405 608.66C472.82 603.355 469.378 603.383 465.42 603.425C453.436 603.536 441.453 603.466 427.462 603.466H427.476Z" fill="#141414"/>
<path d="M574.961 326.143C569.638 326.143 564.301 325.879 559.006 326.227C554.547 326.519 550.144 327.689 545.685 328.162C544.305 328.315 542.466 327.842 541.504 326.937C540.807 326.282 540.626 324.041 541.212 323.275C542.02 322.23 543.803 321.339 545.127 321.409C556.958 322.035 568.886 324.291 580.577 323.344C596.574 322.063 609.102 325.809 618.981 338.982C623.914 345.582 630.464 351.013 636.525 356.708C638.936 358.978 642.141 360.398 644.747 362.5C646.015 363.517 647.38 365.174 647.492 366.622C647.561 367.597 645.443 369.658 644.44 369.574C643.005 369.449 641.416 368.042 640.399 366.775C638.615 364.533 637.556 361.637 635.591 359.604C625.907 349.676 616.18 339.775 606.078 330.293C603.695 328.051 599.807 326.589 596.491 326.31C589.37 325.712 582.166 326.129 574.989 326.129L574.961 326.143Z" fill="#141414"/>
<path d="M252.372 31.6785H280.465C279.601 23.8111 278.737 16.2918 278.012 8.75857C277.873 7.33826 277.845 5.37488 278.667 4.52548C279.489 3.66215 281.607 3.39758 282.847 3.8014C283.809 4.12167 285.021 5.95972 284.896 6.97622C283.851 15.7487 282.527 24.4934 281.189 33.9343H250.547C250.547 30.6899 250.784 27.3341 250.477 24.02C250.184 20.692 249.153 17.4336 248.861 14.0917C248.721 12.5182 249.097 10.4435 250.087 9.38518C250.742 8.68895 253.348 8.86997 254.267 9.63583C255.173 10.3878 255.466 12.4208 255.284 13.7993C254.518 19.5223 253.473 25.2036 252.386 31.6925L252.372 31.6785Z" fill="#141414"/>
<path d="M355.545 601.586C355.545 610.763 355.322 619.953 355.643 629.129C355.81 633.822 357.064 638.459 357.538 643.152C357.677 644.544 357.301 646.633 356.367 647.329C355.406 648.039 353.023 647.997 352.089 647.259C351.17 646.535 350.905 644.474 351.016 643.04C351.922 631.107 352.967 619.187 353.97 607.268C353.12 606.947 352.284 606.641 351.434 606.321C343.422 614.481 334.95 622.265 327.69 631.037C325.711 633.418 327.397 638.807 327.355 642.803C327.341 644.836 327.216 646.869 327.146 648.916C325.641 648.805 322.896 648.916 322.84 648.568C322.492 646.605 322.715 644.502 322.924 642.469C323.007 641.592 323.941 640.659 323.774 639.921C321.628 630.689 328.526 626.261 333.723 620.886C340.287 614.091 346.766 607.212 353.274 600.375C354.026 600.765 354.793 601.169 355.545 601.559V601.586Z" fill="#141414"/>
<path d="M451.221 107.637H428.103C428.897 111.606 429.747 115.018 430.221 118.471C430.444 120.072 430.458 122.133 429.608 123.303C429.065 124.055 425.79 124.096 425.483 123.525C424.675 122.022 424.564 119.989 424.661 118.192C424.745 116.675 426.055 115.101 425.846 113.695C424.592 105.632 428.41 103.864 435.656 104.463C442.86 105.061 450.148 104.588 457.394 104.588C457.937 105.549 458.467 106.523 459.01 107.484C452.545 113.291 445.898 118.93 439.683 124.974C437.189 127.41 435.753 130.892 433.496 133.635C432.493 134.86 430.639 136.03 429.19 136.03C428.159 136.03 426.403 134.039 426.319 132.841C426.236 131.699 427.699 130.195 428.828 129.249C436.715 122.579 444.699 116.006 452.656 109.392L451.249 107.61L451.221 107.637Z" fill="#141414"/>
<path d="M560.26 149.704C571.882 148.576 582.458 147.49 593.049 146.571C594.47 146.446 596.282 146.766 597.313 147.615C598.051 148.228 598.288 150.303 597.814 151.277C597.327 152.266 595.682 153.338 594.595 153.283C582.974 152.656 571.352 151.834 559.745 151.027C559.327 150.999 558.936 150.623 557.808 150.01C557.808 140.778 557.222 131.073 558.086 121.52C558.435 117.649 561.696 113.876 564.176 110.464C564.733 109.698 567.632 110.631 569.457 110.785C569.29 112.414 569.429 115.38 568.914 115.491C557.125 118.165 560.692 127.522 560.288 135.027C560.051 139.33 560.246 143.661 560.246 149.704H560.26Z" fill="#141414"/>
<path d="M100.428 264.401C93.2234 256.993 86.0052 249.585 78.8009 242.178C78.3689 242.303 77.923 242.428 77.4911 242.553C78.2714 245.102 79.2608 247.608 79.7485 250.212C79.9993 251.577 79.8182 253.596 78.9681 254.417C78.1042 255.239 75.791 255.559 74.7877 254.96C73.7565 254.348 72.8508 252.245 73.0598 251.006C73.868 246.383 75.1639 241.829 76.2369 237.401C85.5314 247.469 95.2021 257.94 104.427 267.938C101.64 267.938 96.6513 267.701 91.6906 268.008C87.1896 268.3 82.7305 269.358 78.2157 269.707C76.655 269.832 74.7459 269.191 73.5057 268.231C72.9205 267.785 73.018 265.07 73.659 264.652C74.9549 263.789 76.864 263.343 78.4386 263.51C85.7962 264.248 93.1258 265.251 100.456 266.142C100.456 265.557 100.428 264.986 100.414 264.401H100.428Z" fill="#141414"/>
<path d="M76.3207 460.781C74.9411 459.235 73.3386 458.205 73.1435 456.965C72.9485 455.74 73.8264 453.86 74.8575 453.011C79.6929 448.959 85.0578 445.477 89.6423 441.189C97.9335 433.433 105.904 425.342 113.791 417.169C116.09 414.787 117.498 411.571 119.546 408.911C120.424 407.769 121.943 406.349 123.1 406.419C124.298 406.474 126.11 408.02 126.374 409.204C126.639 410.345 125.608 412.267 124.563 413.13C120.243 416.709 115.366 419.675 111.311 423.518C102.56 431.803 94.0875 440.381 85.7266 449.056C83.4553 451.423 82.0897 454.64 80.1109 457.327C79.233 458.525 77.9092 459.374 76.3207 460.795V460.781Z" fill="#141414"/>
<path d="M60.7554 425.551C64.7686 421.805 68.7957 417.614 73.2967 414.035C75.2475 412.476 78.146 412.03 80.6821 411.292C83.678 410.429 86.7297 409.58 89.8093 409.176C91.1749 408.995 93.0561 409.51 94.0316 410.429C94.7144 411.083 94.8119 413.395 94.1988 414.147C93.3627 415.163 91.0495 416.263 90.2552 415.804C80.5009 410.109 74.286 415.498 68.4195 422.362C67.0957 423.908 65.6326 425.314 64.2809 426.749C68.531 430.884 72.4884 434.714 77.7 439.782C85.601 430.662 93.8504 421.054 102.225 411.571C103.284 410.359 104.97 409.343 106.517 409.078C107.311 408.939 109.151 410.596 109.22 411.529C109.318 412.852 108.593 414.704 107.562 415.581C101.403 420.9 94.8398 425.788 88.8339 431.288C84.7928 434.978 81.4345 439.434 77.4353 443.904C71.4573 437.345 66.5662 431.97 60.7415 425.579L60.7554 425.551Z" fill="#141414"/>
<path d="M552.889 398.329C547.273 399.206 539.902 400.487 532.502 401.392C531.276 401.545 529.423 400.459 528.642 399.373C528.071 398.565 528.28 396.323 529.005 395.669C529.98 394.792 531.792 394.458 533.213 394.527C546.005 395.098 558.895 397.006 571.52 395.864C576.16 395.446 580.159 387.885 584.437 383.568C585.733 382.26 586.834 380.616 588.381 379.809C588.854 379.558 590.526 381.591 591.641 382.566C590.29 384 589.022 385.532 587.558 386.841C586.736 387.579 585.245 387.746 584.688 388.595C577.4 399.819 566.503 400.584 552.875 398.329H552.889Z" fill="#141414"/>
<path d="M192.55 47.2602C188.231 44.6006 184.803 42.679 181.612 40.4232C180.483 39.6156 179.424 38.0281 179.298 36.7053C179.201 35.7306 180.566 33.8786 181.486 33.7254C182.796 33.5026 184.914 34.0457 185.639 35.0343C188.676 39.1839 191.31 43.6119 195.031 49.4046C190.795 53.206 186.628 59.0126 181.012 61.3798C175.689 63.6217 168.708 63.0925 162.702 62.1874C159.079 61.6304 155.79 58.1771 152.641 55.6707C151.638 54.877 150.997 52.8997 151.178 51.5907C151.317 50.6021 153.199 48.9729 153.979 49.1261C155.512 49.4464 157.449 50.5046 158.145 51.8275C162.632 60.3772 169.6 64.3736 177.431 60.5164C182.754 57.8986 186.726 52.5237 192.564 47.2463L192.55 47.2602Z" fill="#141414"/>
<path d="M48.2282 368.92C50.5413 378.959 47.7962 387.063 39.3796 393.19C37.9165 394.262 37.5402 396.727 36.3279 398.273C35.3107 399.554 33.9033 401.044 32.468 401.28C31.5483 401.434 29.3327 399.47 29.3745 398.509C29.4302 397.047 30.5729 394.875 31.8409 394.304C41.4977 389.96 47.5314 383.568 46.0126 372.108C45.6502 369.379 45.6642 366.525 46.0126 363.795C47.406 352.948 40.7174 347.671 32.468 343.173C30.9909 342.365 29.7925 340.388 29.3187 338.717C29.1376 338.063 31.4926 335.779 32.3844 335.946C33.8475 336.211 35.2967 337.687 36.314 338.982C37.5263 340.541 37.8468 343.061 39.3099 344.106C48.047 350.386 50.4995 358.824 48.2142 368.906L48.2282 368.92Z" fill="#141414"/>
<path d="M471.719 562.667C470.13 561.539 468.834 560.968 468.026 559.994C464.013 555.106 460.404 549.856 456.126 545.219C450.496 539.079 444.532 533.23 438.429 527.563C435.488 524.834 431.824 522.926 428.66 520.42C427.546 519.528 426.222 517.871 426.361 516.73C426.501 515.532 428.173 513.805 429.371 513.624C430.556 513.443 432.283 514.627 433.259 515.685C444.978 528.245 456.572 540.931 468.333 553.449C469.28 554.465 471.566 554.145 472.694 555.092C473.739 555.955 474.701 557.752 474.561 559.019C474.436 560.23 472.861 561.302 471.705 562.681L471.719 562.667Z" fill="#141414"/>
<path d="M355.211 75.4158C364.672 85.0934 374.273 94.6596 383.484 104.56C385.351 106.579 386.076 109.838 386.787 112.664C387.093 113.904 386.438 116.076 385.463 116.758C384.515 117.426 382.146 117.287 381.241 116.521C380.335 115.755 379.666 113.082 380.251 112.414C384.446 107.596 380.655 105.061 377.771 102.068C370.915 94.9799 364.143 87.7948 357.343 80.6515C356.493 81.0135 355.643 81.3755 354.779 81.7237C355.643 89.7025 356.576 97.6674 357.287 105.66C357.44 107.289 357.148 109.211 356.339 110.576C355.963 111.216 353.469 111.411 352.688 110.826C351.643 110.032 350.696 108.236 350.793 106.955C351.379 98.1269 352.243 89.3265 353.023 80.5122C353.148 79.1754 353.274 77.8387 353.413 76.488C354.012 76.1259 354.625 75.75 355.225 75.3879L355.211 75.4158Z" fill="#141414"/>
<path d="M123.936 182.886C120.94 193.915 122.528 196.463 131.92 200.961C133.286 201.615 134.693 203.439 134.888 204.887C135.028 205.904 132.77 208.313 132.227 208.132C130.582 207.603 129.008 206.294 127.837 204.929C126.695 203.606 126.472 201.281 125.176 200.334C117.108 194.486 119.198 186.409 119.713 176.773C125.594 182.51 130.29 187.384 135.32 191.882C138.135 194.402 141.591 196.212 144.587 198.566C145.716 199.457 147.109 201.016 147.025 202.172C146.942 203.37 145.367 205.152 144.169 205.416C143.026 205.667 141.103 204.637 140.253 203.592C134.707 196.783 129.356 189.807 123.936 182.886Z" fill="#141414"/>
<path d="M33.8197 353.352C33.8197 363.238 34.0287 372.679 33.6524 382.092C33.5828 384 31.4368 385.908 30.0433 387.662C25.5285 393.316 20.9997 398.969 16.2898 404.455C15.3979 405.486 13.6143 406.279 12.2765 406.224C11.3429 406.182 9.76829 404.539 9.74042 403.578C9.69862 402.241 10.4929 400.473 11.538 399.568C17.3349 394.541 23.4243 389.862 29.1376 384.752C30.4614 383.568 31.2975 381.173 31.3532 379.307C31.604 371.705 31.4508 364.074 31.4508 354.703C22.9506 355.482 14.9241 356.276 6.86987 356.903C5.22557 357.028 3.33044 356.903 1.93697 356.179C1.32384 355.858 1.10088 353.296 1.70008 352.502C2.49436 351.458 4.30587 350.511 5.61574 350.609C13.7536 351.18 21.8637 352.057 29.9737 352.837C30.8794 352.92 31.7713 353.073 33.8197 353.338V353.352Z" fill="#141414"/>
<path d="M602.287 334.985C603.904 336.266 605.437 336.977 606.231 338.174C616.166 353.129 628.708 365.452 643.59 375.478C644.677 376.216 645.499 378.082 645.499 379.419C645.499 380.394 644.05 381.884 642.991 382.176C641.918 382.468 640.106 381.925 639.354 381.09C630.993 371.788 623.008 362.124 614.383 353.06C610.565 349.049 605.465 346.264 601.131 342.714C600.058 341.836 599.041 340.026 599.194 338.801C599.347 337.561 600.991 336.503 602.301 334.985H602.287Z" fill="#141414"/>
<path d="M645.875 392.021C643.437 393.26 642.057 394.485 640.608 394.569C639.27 394.638 637.459 393.817 636.581 392.787C632.205 387.648 628.429 381.953 623.775 377.093C614.048 366.915 603.946 357.084 593.857 347.239C592.157 345.582 589.593 344.816 587.767 343.243C586.388 342.073 585.12 340.388 584.688 338.703C584.521 338.035 586.903 335.793 587.823 335.96C589.244 336.211 590.596 337.77 591.627 339.051C593.146 340.959 594.052 343.424 595.738 345.136C608.391 357.961 621.127 370.716 633.961 383.36C635.661 385.044 638.1 385.95 640.12 387.342C641.486 388.289 642.712 389.431 645.861 392.021H645.875Z" fill="#141414"/>
<path d="M95.9128 92.4597C98.9924 94.8548 100.149 95.5092 101.013 96.4561C111.227 107.596 121.358 118.819 131.669 129.861C132.784 131.059 135.181 130.975 136.547 132.047C137.62 132.897 138.553 134.624 138.539 135.946C138.539 136.935 136.965 138.592 135.961 138.69C134.651 138.829 132.798 138.091 131.906 137.088C124.618 128.942 117.776 120.351 110.21 112.497C106.029 108.167 100.595 105.048 95.9268 101.149C94.9095 100.299 94.2546 98.4334 94.2685 97.0548C94.2964 95.551 95.2997 94.0471 95.9268 92.4597H95.9128Z" fill="#141414"/>
<path d="M413.318 616.027C414.266 621.624 415.353 627.194 416.05 632.834C416.203 634.115 415.353 635.981 414.336 636.802C413.583 637.415 411.493 637.248 410.587 636.607C409.709 635.981 409.124 634.268 409.208 633.084C409.877 624.27 410.545 615.428 411.674 606.669C412.05 603.731 413.402 600.737 414.977 598.175C420.857 588.609 430.695 585.921 440.853 584.153C442.135 583.93 444.045 584.738 444.922 585.726C445.577 586.451 445.536 588.762 444.867 589.444C443.933 590.405 442.094 590.962 440.7 590.879C436.311 590.6 430.974 588.135 427.769 589.834C422.696 592.522 418.042 597.312 415.13 602.339C413.068 605.903 414.154 611.306 413.848 615.887C413.667 615.943 413.472 615.985 413.291 616.04L413.318 616.027Z" fill="#141414"/>
<path d="M166.325 574.183C162.507 577.469 158.48 580.56 154.954 584.139C152.795 586.325 151.526 589.361 149.59 591.811C148.558 593.12 147.039 594.582 145.562 594.805C144.601 594.944 142.399 592.967 142.413 591.951C142.427 590.503 143.653 588.692 144.907 587.704C149.84 583.805 154.982 580.184 160.765 575.937C151.429 573.111 144.336 576.745 140.936 584.529C140.184 586.242 138.261 587.439 136.867 588.887C135.794 587.843 134.721 586.813 133.662 585.768C135.111 584.362 136.505 582.886 138.038 581.577C139.236 580.546 141.034 580.003 141.842 578.764C147.653 569.978 156.153 571.161 164.611 571.983C165.182 572.721 165.754 573.459 166.339 574.197L166.325 574.183Z" fill="#141414"/>
<path d="M222.454 595.808C221.325 588.428 220.127 581.076 219.166 573.668C219.012 572.512 219.681 570.59 220.559 570.131C221.716 569.518 223.694 569.532 224.865 570.145C225.757 570.604 226.398 572.456 226.328 573.654C225.603 586.395 224.907 599.136 223.736 611.835C223.457 614.926 221.562 617.906 220.252 620.858C219.263 623.086 218.204 625.342 216.769 627.278C215.933 628.405 214.344 629.464 213.006 629.575C212.045 629.659 210.456 628.294 210.08 627.236C209.704 626.178 210.206 623.713 210.791 623.56C226.398 619.271 220.239 606.516 221.395 596.643C221.423 596.421 221.395 596.184 221.395 595.947C221.744 595.891 222.092 595.85 222.44 595.794L222.454 595.808Z" fill="#141414"/>
<path d="M615.4 395.028C624.555 396.769 631.439 397.925 638.211 399.498C639.284 399.749 640.441 401.837 640.58 403.174C640.678 404.135 639.284 405.959 638.323 406.14C637.013 406.377 634.407 405.653 634.226 404.901C632.038 395.474 624.931 400.236 619.093 399.094C618.702 407.602 617.49 415.706 618.368 423.574C618.744 426.958 623.426 429.882 626.213 432.945C627.481 434.338 628.944 435.577 630.31 436.872C629.39 437.707 627.983 439.434 627.635 439.239C626.074 438.362 624.792 436.969 623.454 435.744C611.331 424.646 618.173 410.332 615.4 395.028Z" fill="#141414"/>
<path d="M560.483 514.836V527.855C563.995 527.382 567.186 526.825 570.377 526.574C572.216 526.435 574.237 526.421 575.853 527.103C576.411 527.34 576.452 530.919 575.923 531.156C574.32 531.866 572.272 532.033 570.488 531.796C566.489 531.253 562.546 530.334 558.421 529.54C558.421 529.54 558.17 529.359 558.142 529.15C555.885 513.402 556.024 513.36 571.561 513.137C575.324 513.081 579.044 511.786 582.821 511.341C584.214 511.174 586.221 511.355 587.001 512.232C587.781 513.109 587.99 515.407 587.363 516.395C586.708 517.412 584.688 518.206 583.378 518.052C576.034 517.203 568.733 516.033 560.483 514.836Z" fill="#141414"/>
<path d="M141.41 148.492C138.065 151.375 137.02 152.976 135.78 153.157C134.54 153.338 132.687 152.433 131.823 151.417C127.893 146.766 124.549 141.6 120.396 137.172C113.122 129.416 105.542 121.966 97.8498 114.628C95.4669 112.358 92.2062 111.035 89.6004 108.974C88.3323 107.972 86.9946 106.287 86.8971 104.839C86.8274 103.878 88.7922 102.095 90.0324 101.9C91.189 101.719 92.9447 102.889 93.8087 103.961C96.7768 107.61 99.1318 111.815 102.351 115.199C110.475 123.734 118.835 132.033 127.336 140.207C129.872 142.644 133.105 144.412 136.129 146.306C137.48 147.156 139.111 147.573 141.424 148.506L141.41 148.492Z" fill="#141414"/>
<path d="M328.33 598.05C330.894 594.206 333.361 590.294 336.078 586.562C336.928 585.406 338.461 584.027 339.659 584.041C340.886 584.055 342.558 585.448 343.129 586.659C343.533 587.523 342.822 589.611 341.945 590.266C336.385 594.429 330.63 598.342 324.192 602.881C324.038 600.361 323.788 597.994 323.774 595.627C323.746 582.44 323.927 569.24 323.704 556.067C323.648 552.544 322.241 549.063 321.879 545.512C321.725 543.938 322.297 542.031 323.202 540.736C323.62 540.137 326.129 540.165 326.825 540.819C327.787 541.738 328.456 543.549 328.344 544.899C327.829 550.748 326.505 556.54 326.338 562.389C326.003 573.904 326.24 585.448 326.24 596.977C326.937 597.339 327.62 597.701 328.316 598.064L328.33 598.05Z" fill="#141414"/>
<path d="M106.448 513.36C108.036 522.982 108.148 531.253 99.6195 537.408C97.2367 539.121 96.1219 542.518 94.1711 544.941C93.1538 546.208 91.6628 547.657 90.2275 547.865C89.2382 548.005 86.8553 545.791 87.0225 545.248C87.566 543.604 88.7226 541.599 90.1857 540.917C99.5917 536.531 104.692 529.081 104.009 517.343C100.219 522.355 97.6269 526.004 94.7702 529.429C93.6276 530.794 91.9833 531.95 90.339 532.59C89.8513 532.785 87.6217 530.599 87.8029 530.07C88.3881 528.413 89.489 526.714 90.8546 525.586C95.7317 521.548 100.804 517.746 106.448 513.346V513.36Z" fill="#141414"/>
<path d="M323.844 33.3635C323.844 26.9303 324.011 20.4971 323.76 14.0778C323.662 11.4461 322.492 8.87002 322.171 6.22434C321.976 4.60908 321.976 2.56215 322.826 1.37856C323.356 0.626629 326.324 0.445608 326.923 1.11399C327.899 2.22796 328.261 4.28881 328.108 5.87622C327.383 13.2563 326.394 20.6224 325.502 27.9886C326.394 28.4202 327.271 28.838 328.163 29.2696C335.159 21.068 342.126 12.8525 349.205 4.72048C350.292 3.46726 351.824 2.08872 353.302 1.87985C354.193 1.75453 356.298 3.885 356.214 4.85972C356.102 6.16864 354.57 7.53325 353.385 8.5776C348.759 12.6575 343.77 16.3615 339.409 20.692C334.866 25.2036 330.894 30.2861 326.686 35.118C325.753 34.5331 324.805 33.9483 323.871 33.3774L323.844 33.3635Z" fill="#141414"/>
<path d="M237.295 596.574C236.11 588.971 234.8 581.382 233.839 573.751C233.686 572.498 234.759 570.813 235.748 569.796C236.291 569.239 238.298 569.184 238.841 569.713C239.859 570.715 240.918 572.345 240.862 573.667C240.249 585.977 239.078 598.272 238.786 610.596C238.674 615.386 237.518 618.839 233.978 622.097C231.414 624.451 230.007 628.015 227.735 630.772C226.732 631.998 224.962 632.973 223.416 633.195C222.635 633.307 220.852 631.566 220.796 630.578C220.726 629.255 221.59 626.943 222.538 626.651C235.358 622.71 237.336 613.06 236.208 601.6C236.054 599.999 236.18 598.37 236.18 596.741C236.556 596.685 236.932 596.629 237.309 596.574H237.295Z" fill="#141414"/>
<path d="M48.6462 455.823C48.6462 461.56 48.3953 467.506 48.7298 473.424C48.9527 477.407 50.1372 481.333 50.597 485.33C50.7503 486.708 50.4298 488.727 49.5241 489.479C48.6183 490.231 46.3191 490.329 45.3436 489.66C44.3682 488.992 43.7411 486.973 43.8666 485.636C44.7584 476.669 45.8871 467.715 47.1552 456.937C41.5255 457.843 37.6935 458.65 33.8335 459.012C32.0917 459.179 30.113 458.776 28.5523 458.01C28.0367 457.759 28.0088 454.696 28.5244 454.445C30.0851 453.665 32.0638 453.164 33.7917 453.373C38.4738 453.916 43.1141 454.877 48.6601 455.823H48.6462Z" fill="#141414"/>
<path d="M125.58 455.865C133.356 454.793 141.131 453.595 148.935 452.802C150.217 452.676 151.666 454.361 153.045 455.224C151.972 456.492 150.844 458.901 149.84 458.845C139.891 458.371 129.956 457.494 118.724 456.631C120.884 454.11 122.668 452.203 124.256 450.156C127.559 445.853 130.652 441.383 134.052 437.164C134.888 436.12 136.463 435.34 137.815 435.131C138.47 435.034 140.1 436.649 140.002 437.276C139.78 438.598 138.971 440.061 137.968 440.993C133.537 445.115 128.952 449.07 124.423 453.08C124.814 454.013 125.218 454.946 125.608 455.865H125.58Z" fill="#141414"/>
<path d="M181.667 486.221C180.859 487.669 180.525 488.853 179.744 489.549C169.223 499.046 158.452 508.278 148.168 518.039C144.308 521.701 141.647 526.63 138.219 530.78C137.355 531.81 135.557 532.618 134.247 532.548C133.258 532.493 131.641 530.919 131.586 529.944C131.502 528.636 132.324 526.839 133.355 525.99C137.341 522.718 141.911 520.114 145.66 516.591C153.589 509.141 161.225 501.371 168.764 493.518C170.882 491.317 172.066 488.254 174.003 485.859C175.006 484.634 176.706 483.38 178.17 483.297C179.215 483.227 180.385 485.065 181.681 486.207L181.667 486.221Z" fill="#141414"/>
<path d="M503.574 515.644C503.574 515.644 503.058 517.134 502.055 517.621C501.051 518.094 499.031 518.025 498.39 517.329C497.484 516.34 496.606 514.056 497.136 513.207C502.306 504.824 498.683 498.809 492.147 493.559C487.577 489.883 482.769 486.472 478.212 482.782C477.293 482.03 476.289 480.303 476.568 479.412C476.986 478.089 478.338 476.641 479.634 476.153C480.512 475.819 482.337 476.752 483.104 477.643C488.399 483.84 493.68 490.078 498.641 496.553C500.188 498.572 501.093 501.26 501.706 503.78C502.556 507.247 502.863 510.854 503.588 515.644H503.574Z" fill="#141414"/>
<path d="M592.059 267.896C590.22 268.537 588.381 269.706 586.541 269.734C572.997 269.901 559.452 269.901 545.907 269.804C544.305 269.804 542.438 269.219 541.225 268.258C540.626 267.785 540.724 265.111 541.365 264.666C542.647 263.775 544.667 263.106 546.13 263.44C559.647 266.587 573.066 266.713 586.597 263.413C588.227 263.009 590.331 264.582 592.226 265.237C592.171 266.128 592.115 267.019 592.073 267.924L592.059 267.896Z" fill="#141414"/>
<path d="M399.439 527.006C400.011 529.081 401.056 531.142 401.084 533.217C401.251 545.777 401.223 558.351 401.167 570.911C401.167 572.54 401.167 574.573 400.262 575.673C399.648 576.425 396.764 576.495 396.123 575.784C395.161 574.698 395.008 572.679 394.994 571.05C394.925 558.462 394.911 545.86 395.036 533.272C395.05 531.239 395.83 529.22 396.248 527.187C397.307 527.132 398.367 527.062 399.426 527.006H399.439Z" fill="#141414"/>
<path d="M620.598 457.745C618.772 458.051 616.947 458.566 615.121 458.622C601.73 459.012 588.339 459.346 574.934 459.583C573.512 459.611 571.492 459.346 570.795 458.427C570.056 457.452 570.015 455.141 570.711 454.138C571.38 453.178 573.387 452.788 574.808 452.802C588.617 452.927 602.441 453.136 616.25 453.498C617.797 453.54 619.316 454.709 620.835 455.364C620.765 456.157 620.681 456.965 620.612 457.759L620.598 457.745Z" fill="#141414"/>
<path d="M281.161 90.5659C282.527 97.5004 283.879 103.641 284.812 109.852C284.993 111.035 283.767 112.901 282.638 113.653C281.83 114.21 279.615 113.918 278.946 113.18C278.068 112.205 277.622 110.339 277.831 109.002C278.472 104.922 279.517 100.912 280.409 96.8738C279.601 96.4978 278.778 96.1219 277.97 95.7459C275.337 99.4638 272.814 103.279 270 106.872C269.024 108.125 267.408 109.225 265.903 109.559C265.164 109.726 263.311 108.055 263.199 107.081C263.046 105.772 263.701 103.836 264.69 103.001C269.331 99.1157 274.194 95.5092 279.001 91.8331C279.67 91.3318 280.451 90.9837 281.161 90.5798V90.5659Z" fill="#141414"/>
<path d="M184.259 498.405C182.016 501.273 181.416 502.68 180.371 503.278C168.694 510.004 159.469 519.111 152.781 530.835C152.195 531.866 150.091 532.576 148.753 532.478C147.806 532.423 146.245 530.766 146.245 529.819C146.245 528.482 147.067 526.546 148.154 525.906C159.734 519.041 168.959 509.948 175.731 498.293C176.344 497.249 178.42 496.553 179.8 496.595C181.263 496.636 182.712 497.722 184.245 498.391L184.259 498.405Z" fill="#141414"/>
<path d="M497.164 577.163C494.6 580.936 492.119 584.793 489.402 588.456C488.552 589.597 486.991 590.962 485.793 590.92C484.581 590.878 482.964 589.458 482.393 588.233C481.989 587.383 482.616 585.309 483.452 584.696C489.068 580.574 494.851 576.703 501.261 572.289C501.428 575.325 501.456 578.402 501.818 581.424C502.25 584.988 503.156 588.511 503.462 592.09C503.602 593.677 503.211 595.752 502.222 596.838C501.609 597.521 498.947 597.326 498.069 596.546C497.192 595.766 496.983 593.705 497.206 592.327C497.958 587.704 499.045 583.122 499.992 578.527C499.045 578.068 498.097 577.608 497.136 577.149L497.164 577.163Z" fill="#141414"/>
<path d="M18.575 368.39C22.3513 377.873 17.4184 385.49 13.1823 393.176C12.6946 394.067 10.7437 394.778 9.67072 394.569C8.59775 394.346 7.10673 392.912 7.02312 391.923C6.92558 390.6 7.78953 388.136 8.62562 387.969C19.0767 385.796 16.6242 377.957 16.5545 369.699C13.67 370.437 11.2732 371.287 8.8207 371.607C7.21821 371.816 5.1698 371.76 3.99928 370.897C3.24681 370.34 3.07959 367.444 3.76239 366.803C4.8075 365.828 6.92558 365.369 8.4166 365.619C11.7052 366.19 14.8823 367.346 18.5611 368.404L18.575 368.39Z" fill="#141414"/>
<path d="M372.754 573.166C372.155 574.002 371.584 575.492 370.553 575.993C369.535 576.48 367.515 576.466 366.874 575.784C365.954 574.823 365.55 573.055 365.536 571.635C365.411 561.372 365.397 551.096 365.48 540.833C365.48 539.371 365.787 537.38 366.748 536.6C367.64 535.876 370.023 535.862 370.957 536.572C371.932 537.31 372.671 539.524 372.281 540.68C368.811 550.957 368.978 561.163 372.239 571.412C372.378 571.843 372.49 572.289 372.754 573.18V573.166Z" fill="#141414"/>
<path d="M236.57 27.9606C235.929 24.8276 235.093 21.7224 234.703 18.5615C234.48 16.793 234.563 14.7322 235.344 13.2283C235.664 12.6156 238.953 12.5599 239.51 13.284C240.402 14.4676 240.528 16.5563 240.305 18.1855C239.636 23.268 238.646 28.3226 237.559 34.7141C234.689 31.9848 232.431 29.6176 229.923 27.5429C228.056 26.0111 225.743 25.0086 223.862 23.4908C222.621 22.4882 221.172 21.0679 220.963 19.6754C220.824 18.7703 222.83 16.5981 223.722 16.6816C225.171 16.807 226.844 18.0462 227.805 19.2995C230.16 22.3629 232.153 25.6909 234.285 28.9214C235.037 28.6011 235.804 28.2669 236.556 27.9467L236.57 27.9606Z" fill="#141414"/>
<path d="M573.066 370.813C564.97 370.563 556.874 370.201 548.778 370.131C546.618 370.117 544.458 371.231 542.257 371.384C540.473 371.51 538.452 371.343 536.933 370.549C536.376 370.257 536.418 367.068 537.184 366.469C538.299 365.592 540.306 365.703 541.936 365.689C551.76 365.634 561.598 365.634 571.422 365.689C573.066 365.689 574.92 365.689 576.271 366.441C576.968 366.831 577.344 369.156 576.843 370.048C576.174 371.245 574.543 371.914 573.317 372.819C573.233 372.15 573.136 371.482 573.052 370.813H573.066Z" fill="#141414"/>
<path d="M648.467 283.367C647.143 284.982 646.377 286.402 645.206 287.266C642.364 289.368 639.437 291.415 636.33 293.1C633.473 294.66 630.408 295.899 627.314 296.929C624.792 297.779 622.103 298.308 619.455 298.586C617.825 298.767 615.79 298.67 614.578 297.793C613.895 297.305 613.937 294.325 614.689 293.671C615.776 292.738 618.159 292.167 619.385 292.724C629.418 297.333 634.63 293.866 640.357 283.422C641.165 281.946 643.116 280.679 644.774 280.248C645.583 280.039 646.948 282.002 648.467 283.339V283.367Z" fill="#141414"/>
<path d="M110.154 499.923C108.886 501.399 108.217 502.694 107.158 503.32C95.871 510.074 86.7158 518.902 80.1108 530.362C79.4698 531.476 77.4353 532.534 76.2369 532.367C75.0803 532.2 73.4639 530.445 73.3524 529.276C73.2549 528.12 74.6065 526.644 75.6377 525.6C84.5002 516.66 93.3906 507.762 102.378 498.962C103.507 497.862 105.277 496.817 106.74 496.845C107.813 496.873 108.858 498.669 110.154 499.909V499.923Z" fill="#141414"/>
<path d="M219.988 531.504C222.12 527.842 224.099 524.082 226.495 520.601C227.22 519.543 229.282 518.624 230.467 518.874C231.637 519.125 233.198 520.921 233.226 522.077C233.268 523.246 231.874 524.82 230.718 525.614C229.004 526.769 226.941 527.41 223.959 528.733C232.376 530.849 232.292 530.78 236.751 524.917C237.532 523.887 239.455 523.177 240.778 523.288C241.74 523.358 243.426 525.196 243.273 525.934C242.952 527.452 241.837 529.735 240.667 530C233.964 531.518 227.15 532.548 220.378 533.746C220.253 533.008 220.113 532.256 219.988 531.518V531.504Z" fill="#141414"/>
<path d="M476.359 119.07C474.325 121.841 473.767 123.372 472.722 123.888C463.065 128.72 455.847 135.863 451.04 145.554C450.524 146.585 448.406 147.365 447.082 147.281C446.093 147.211 444.49 145.624 444.435 144.649C444.379 143.326 445.187 141.238 446.232 140.709C455.945 135.863 463.065 128.608 468.012 118.986C468.556 117.928 470.646 117.12 471.998 117.148C473.447 117.19 474.882 118.36 476.345 119.056L476.359 119.07Z" fill="#141414"/>
<path d="M224.795 132.298C223.332 133.9 222.371 135.849 221.325 135.905C219.876 135.96 217.967 134.93 216.964 133.746C215.069 131.546 214.065 128.497 211.989 126.561C208.38 123.191 206.22 119.655 206.792 114.503C207.001 112.623 205.705 110.631 205.523 108.654C205.356 106.844 205.426 104.839 206.123 103.237C206.36 102.708 209.662 102.639 210.219 103.377C211.111 104.56 211.488 106.774 211.028 108.222C207.516 119.404 209.732 124.194 220.866 129.151C222.162 129.722 223.165 130.961 224.795 132.298Z" fill="#141414"/>
<path d="M625.461 325.934C624.026 326.366 622.13 327.201 620.166 327.466C618.326 327.717 616.278 327.717 614.62 327.062C614.048 326.839 614.425 324.277 614.369 322.773C616.403 322.718 618.438 322.509 620.444 322.634C621.768 322.718 623.134 323.804 624.346 323.595C631.23 322.411 635.633 326.004 639.758 330.78C641.472 332.757 644.147 333.871 646.168 335.626C647.687 336.935 649.066 338.536 649.986 340.277C650.167 340.639 647.478 343.298 646.976 343.062C645.36 342.296 644.064 340.75 642.81 339.372C639.005 335.18 635.438 330.738 631.397 326.798C630.366 325.795 627.913 326.241 625.461 325.948V325.934Z" fill="#141414"/>
<path d="M192.676 622.418C191.087 620.566 189.15 619.229 189.345 618.338C189.694 616.667 191.031 614.982 192.383 613.771C196.772 609.858 202.165 606.739 205.565 602.13C207.405 599.651 206.011 594.763 205.997 590.948C205.997 588.887 205.607 586.799 205.9 584.807C205.941 584.487 208.701 584.571 210.205 584.473C210.261 586.506 210.387 588.553 210.331 590.586C210.317 591.213 209.425 591.923 209.564 592.424C212.17 602.589 204.381 607.282 198.835 613.228C197.678 614.481 197.316 616.444 196.368 617.934C195.463 619.34 194.25 620.552 192.703 622.418H192.676Z" fill="#141414"/>
<path d="M440.784 23.2402C440.352 24.4238 440.296 25.3846 439.85 25.6353C434.457 28.6569 429.12 31.8178 423.519 34.3939C420.955 35.5775 417.847 35.7585 414.949 35.9534C413.179 36.0787 411.214 35.6192 409.612 34.8394C409.138 34.6027 409.208 31.5115 409.751 31.2608C411.354 30.5228 413.583 29.8126 415.074 30.3696C423.031 33.3634 429.315 31.9292 432.353 25.8859C432.952 24.6884 432.716 22.906 433.552 22.0427C434.499 21.054 436.325 20.1489 437.551 20.3717C438.791 20.6085 439.766 22.2655 440.77 23.2263L440.784 23.2402Z" fill="#141414"/>
<path d="M90.938 339.887C86.4789 340.931 82.1592 342.129 77.7697 342.881C76.4738 343.103 74.3836 342.519 73.7147 341.572C73.0319 340.583 73.0876 338.258 73.8262 337.325C74.5647 336.392 76.5574 336.141 78.0066 336.127C86.8552 336.016 95.7037 335.988 104.566 336.099C105.974 336.113 107.938 336.573 108.621 337.533C109.304 338.494 109.22 340.806 108.482 341.711C107.743 342.616 105.681 343.006 104.343 342.783C99.9399 342.045 95.5923 340.931 90.938 339.887Z" fill="#141414"/>
<path d="M598.26 500.939C596.491 501.775 594.679 503.432 592.979 503.32C585.998 502.861 579.03 501.148 572.077 501.246C563.033 501.371 554.017 502.847 544.974 503.543C543.803 503.641 542.117 502.944 541.462 502.039C540.821 501.148 540.64 499.073 541.239 498.349C542.089 497.333 543.887 496.553 545.239 496.609C559.159 497.235 573.08 498.14 587.015 498.697C588.868 498.767 590.791 496.832 592.686 496.804C594.512 496.79 596.351 498.057 598.191 498.753L598.274 500.925L598.26 500.939Z" fill="#141414"/>
<path d="M606.9 443.389C604.838 443.834 602.789 444.642 600.727 444.656C587.461 444.767 574.195 444.726 560.929 444.656C559.271 444.656 557.25 444.586 556.108 443.653C555.397 443.082 555.425 440.13 556.164 439.532C557.292 438.627 559.327 438.599 560.971 438.585C574.223 438.515 587.475 438.459 600.727 438.585C602.845 438.613 604.949 439.657 607.053 440.228C606.998 441.272 606.956 442.331 606.9 443.375V443.389Z" fill="#141414"/>
<path d="M548.917 208.396C547.343 209.775 546.144 210.694 545.085 211.752C541.072 215.749 537.17 219.842 533.087 223.769C531.917 224.897 530.384 225.983 528.865 226.262C528.141 226.387 526.245 224.479 526.329 223.644C526.496 222.112 527.458 220.427 528.573 219.258C532.6 214.997 536.724 210.833 541.016 206.837C542.173 205.751 544.026 204.776 545.489 204.873C546.576 204.957 547.524 206.865 548.931 208.382L548.917 208.396Z" fill="#141414"/>
<path d="M577.804 384.557C575.839 385.211 573.889 386.409 571.924 386.437C560.748 386.562 549.572 386.451 538.397 386.325C536.725 386.311 534.676 386.228 533.547 385.295C532.837 384.71 532.948 381.702 533.715 381.104C534.871 380.212 536.92 380.296 538.592 380.268C549.558 380.157 560.539 380.059 571.506 380.157C573.568 380.171 575.616 381.131 577.665 381.647C577.707 382.621 577.748 383.582 577.79 384.557H577.804Z" fill="#141414"/>
<path d="M444.379 617.35C444.379 621.304 445.41 625.607 444.198 626.373C439.975 629.032 437.565 627.125 438.875 622.084C439.432 619.953 440.77 618.046 441.522 616.514C447.347 615.358 452.851 614.119 458.411 613.297C459.623 613.116 461.463 614.189 462.271 615.247C462.828 615.985 462.55 618.45 461.909 618.798C460.543 619.536 458.662 619.772 457.073 619.564C452.712 618.979 448.378 618.074 444.393 617.35H444.379Z" fill="#141414"/>
<path d="M494.293 159.66C489.179 164.701 484.553 169.31 479.745 173.724C479.606 173.849 476.889 172.067 476.624 170.883C476.359 169.755 477.558 167.221 478.408 167.082C483.508 166.246 485.779 163.169 486.964 158.463C487.187 157.571 489.639 156.611 490.893 156.805C492.119 157 493.137 158.602 494.307 159.646L494.293 159.66Z" fill="#141414"/>
<path d="M164.681 45.9235C169.293 45.3108 173.878 44.5449 178.504 44.169C179.619 44.0715 181.319 44.9766 181.89 45.9374C182.448 46.8843 182.434 48.973 181.751 49.6692C180.817 50.6161 178.504 51.563 177.682 51.0617C173.501 48.4578 169.711 48.0818 165.489 51.006C164.709 51.549 162.354 50.6996 161.364 49.7806C160.668 49.1401 160.626 47.1071 161.1 46.0906C161.587 45.0601 163.078 44.5032 164.123 43.7373C164.305 44.4753 164.486 45.1994 164.667 45.9374L164.681 45.9235Z" fill="#141414"/>
<path d="M343.937 645.574C342.878 646.869 342.21 648.331 341.137 648.777C340.119 649.209 338.141 649.014 337.5 648.29C336.622 647.301 336.357 645.56 336.301 644.126C336.162 640.367 336.218 636.579 336.357 632.819C336.413 631.343 336.538 629.575 337.374 628.545C337.987 627.793 340.05 627.542 341.067 627.974C342.098 628.419 343.547 630.438 343.269 631.009C340.816 635.994 339.339 640.798 343.937 645.574Z" fill="#141414"/>
<path d="M517.104 66.6015C517.676 69.9434 518.456 73.2714 518.721 76.6412C518.804 77.7273 517.815 79.3704 516.84 79.9553C515.892 80.5262 513.83 80.5679 513.147 79.9135C512.185 78.9945 511.726 77.24 511.628 75.7918C511.419 72.9512 511.475 70.0827 511.698 67.2421C511.809 65.8078 512.116 64.0255 513.036 63.1204C513.746 62.4241 515.767 62.4241 516.812 62.9115C517.829 63.3989 518.359 64.9166 519.111 65.9749C518.442 66.1838 517.773 66.3787 517.118 66.5876L517.104 66.6015Z" fill="#141414"/>
<path d="M234.048 128.218C232.822 129.29 231.79 130.878 230.55 131.059C229.31 131.24 227.652 130.265 226.537 129.346C224.517 127.689 222.468 125.893 221.005 123.762C220.043 122.384 220.085 120.309 219.681 118.541C221.493 118.304 224.753 117.524 224.893 117.9C226.3 121.702 228.627 124.222 232.557 125.405C233.142 125.587 233.393 126.909 234.048 128.19V128.218Z" fill="#141414"/>
<path d="M541.894 83.8123C536.836 88.4771 532.279 92.7241 527.555 96.7762C527.402 96.9154 524.768 95.1052 524.532 93.9634C524.295 92.7938 525.409 90.3012 526.273 90.1341C530.76 89.243 533.728 87.2935 534.648 82.4756C534.801 81.654 537.338 80.6654 538.592 80.8743C539.776 81.0692 540.724 82.7123 541.894 83.8263V83.8123Z" fill="#141414"/>
<path d="M99.5359 354.828C97.3899 355.58 95.5505 356.568 93.5997 356.805C91.816 357.014 89.7676 356.749 88.2069 355.97C87.6914 355.705 87.775 352.433 88.5553 351.862C89.7119 351.012 91.7324 351.207 93.3907 351.18C97.4457 351.082 101.501 351.054 105.542 351.124C107.214 351.152 109.234 351.012 110.419 351.876C111.171 352.419 111.185 355.691 110.614 355.984C109.081 356.791 107.005 357 105.235 356.777C103.298 356.527 101.473 355.524 99.5359 354.828Z" fill="#141414"/>
<path d="M268.453 9.84476C269.038 13.7158 269.777 17.5729 270.083 21.4718C270.167 22.544 269.149 24.2011 268.188 24.7024C267.199 25.2037 265.136 25.1062 264.467 24.396C263.562 23.4352 262.739 21.0123 263.283 20.3161C266 16.8489 265.791 13.869 263.283 10.4157C262.767 9.70552 263.673 7.31048 264.607 6.37753C265.29 5.69522 267.324 5.68129 268.327 6.19651C269.317 6.69779 269.777 8.24343 270.459 9.31563C269.79 9.49665 269.122 9.67767 268.453 9.85869V9.84476Z" fill="#141414"/>
<path d="M568.273 144.078C567.687 142.574 566.559 141.015 566.684 139.567C566.81 138.035 567.897 136.392 568.969 135.153C571.255 132.535 573.749 130.07 576.299 127.689C577.372 126.686 578.738 125.531 580.075 125.405C581.051 125.322 582.848 126.672 583.044 127.633C583.308 128.942 582.626 131.588 581.915 131.741C576.898 132.883 573.958 135.64 573.011 140.75C572.885 141.46 571.241 141.906 570.307 142.477C569.624 143.006 568.956 143.549 568.273 144.078Z" fill="#141414"/>
</g>
<defs>
<clipPath id="clip0_96_315">
<rect width="650" height="649" fill="white"/>
</clipPath>
</defs>
</svg>
