<svg width="18" height="164" viewBox="0 0 18 164" fill="none" xmlns="http://www.w3.org/2000/svg">
<path d="M17.9904 2.6263e-05C17.952 0.93127 17.8753 1.8625 17.8753 2.80214C17.8753 34.4813 17.8561 66.1521 17.9137 97.8312C17.9137 99.484 17.3287 100.633 15.9381 101.758C11.4978 105.357 7.13423 109.023 2.86658 112.765C2.08977 113.444 1.53353 114.619 1.52394 115.567C1.42804 126.65 1.48558 137.741 1.42804 148.823C1.42804 150.317 1.87878 151.432 3.23101 152.397C4.46815 153.278 5.62857 154.251 6.71226 155.275C7.90145 156.399 8.92761 157.104 11.0375 156.567C13.4254 155.963 15.8038 157.892 15.8422 159.998C15.8805 162.037 13.857 163.732 11.4403 163.69C8.88925 163.639 6.61636 161.685 7.3644 159.663C8.03572 157.859 7.20137 156.877 5.78201 156.047C0.929349 153.203 -0.202299 149.369 0.0278664 144.519C0.469017 134.888 0.104588 125.232 0.238852 115.584C0.258032 114.384 0.948529 112.916 1.92673 112.043C6.21357 108.218 10.7593 104.602 15.1133 100.826C15.8614 100.18 16.5039 99.1232 16.5039 98.2591C16.571 65.7158 16.5519 33.1809 16.5519 0.637645C16.5519 0.427913 16.4847 0.209758 16.4559 2.6263e-05C16.9738 2.6263e-05 17.4821 2.6263e-05 18 2.6263e-05H17.9904Z" fill="black"/>
</svg>
