<svg width="362" height="760" viewBox="0 0 362 760" fill="none" xmlns="http://www.w3.org/2000/svg">
<g clip-path="url(#clip0_108_2117)">
<path d="M316.533 212.204C316.533 206.437 316.781 200.67 316.434 194.953C316.161 190.503 317.749 187.396 321.05 184.339C330.655 175.49 340.036 166.417 349.243 157.195C350.981 155.43 352.246 152.497 352.321 150.061C352.668 140.268 352.519 130.449 352.445 120.656C352.445 117.374 352.47 114.814 356.466 112.975C361.33 110.738 362.968 106.064 361.429 100.969C359.866 95.8732 355.969 93.2383 350.484 93.3626C345.248 93.4621 341.649 96.2212 340.185 100.994C338.621 106.089 340.805 109.892 344.975 113.273C346.935 114.864 348.797 117.747 348.921 120.109C349.368 129.48 349.368 138.876 348.921 148.222C348.772 151.056 347.283 154.386 345.273 156.449C336.139 165.746 326.386 174.496 317.327 183.842C315.069 186.178 313.455 190.006 313.331 193.213C312.86 204.92 313.133 216.653 313.207 228.385C313.207 232.462 313.282 235.768 308.293 238.204C302.61 241.013 302.213 248.47 306.283 253.267C310.204 257.891 317.799 258.512 322.291 254.585C327.006 250.433 327.999 242.206 322.688 239.447C315.366 235.619 316.607 230.1 316.558 224.408C316.508 220.357 316.558 216.305 316.558 212.253L316.533 212.204ZM265.333 79.741C265.333 62.4655 265.407 45.1899 265.283 27.9144C265.258 24.1113 265.581 21.2776 269.874 19.2393C274.54 17.0271 275.732 12.4285 274.367 7.63114C272.877 2.46091 268.708 -0.820205 263.546 0.174071C259.823 0.894922 255.48 3.90261 253.594 7.08429C251.013 11.4591 252.576 16.8531 257.515 19.2145C262.156 21.4267 262.255 24.509 262.23 28.5109C262.131 62.8383 262.156 97.1906 262.206 131.518C262.206 135.57 262.454 139 257.391 141.336C252.502 143.598 250.913 149.117 253.693 153.491C255.678 156.623 259.997 159.557 263.744 160.228C268.534 161.098 272.629 158.04 274.218 153.143C275.856 148.048 274.516 143.35 269.701 140.988C265.655 139 265.258 136.465 265.283 132.86C265.407 115.162 265.333 97.464 265.333 79.741Z" fill="#141414"/>
<path d="M80.3865 760C80.585 757.688 80.9325 755.352 80.9325 753.04C80.9573 673.921 81.0069 594.801 80.8084 515.682C80.8084 512.724 79.1456 509.07 76.9616 506.907C64.2049 494.155 50.9272 481.876 38.1705 469.124C36.0113 466.962 34.3237 463.358 34.3237 460.4C34.0755 408.151 34.0755 355.901 34.2989 303.652C34.2989 300.694 36.061 297.164 38.1705 294.902C44.2262 288.39 51.0761 282.573 57.1814 276.111C59.0427 274.147 60.4326 271.015 60.507 268.405C60.8296 253.69 60.8296 238.974 60.507 224.259C60.4574 221.624 59.0427 218.492 57.1814 216.553C50.9023 209.966 43.8291 204.026 37.6742 197.339C35.3164 194.779 33.3806 190.827 33.331 187.471C32.9835 163.583 32.8842 139.696 33.4054 115.833C33.5792 108.003 31.9163 101.988 25.3643 96.9171C21.0955 93.6112 18.2662 89.7832 11.4164 91.5729C5.38553 93.1637 0.0247778 87.3721 0.0495963 81.1081C0.0495963 75.0679 5.53445 70.0717 11.6894 70.4445C18.0925 70.8174 23.5029 76.1865 21.8152 82.1273C20.3013 87.5461 22.262 90.7029 26.1584 93.3377C35.0434 99.378 37.0289 107.432 36.6814 117.623C35.8872 140.417 36.2595 163.26 36.6318 186.079C36.6814 189.435 38.5924 193.362 40.9502 195.922C47.1051 202.634 54.1535 208.574 60.4326 215.161C62.3187 217.125 63.8575 220.207 63.9071 222.817C64.2298 238.378 64.2298 253.963 63.9071 269.524C63.8575 272.158 62.4677 275.315 60.6063 277.279C54.3272 283.891 47.3781 289.906 41.0991 296.493C39.2377 298.457 37.7486 301.564 37.7486 304.174C37.5501 356.001 37.5253 407.827 37.7486 459.654C37.7486 462.388 39.4859 465.744 41.521 467.782C53.8309 480.062 66.3393 492.167 79.0959 504.024C82.918 507.578 84.4319 511.182 84.4319 516.278C84.283 594.751 84.3326 673.249 84.3326 751.723C84.3326 754.482 84.3822 757.266 84.4319 760.025C83.0917 760.025 81.7763 760.025 80.4361 760.025L80.3865 760Z" fill="#141414"/>
<path d="M194.278 760C194.427 757.664 194.675 755.327 194.7 753.015C194.7 650.878 194.7 548.741 194.849 446.629C194.849 441.459 193.211 437.904 189.438 434.399C178.419 424.183 167.598 413.793 157.025 403.154C155.015 401.141 153.551 397.686 153.526 394.902C153.303 358.859 153.278 322.842 153.576 286.799C153.601 283.468 155.512 279.516 157.869 276.981C164.496 269.822 171.817 263.284 178.841 256.474C184.574 250.931 184.375 237.98 178.518 232.362C171.147 225.278 163.578 218.368 156.579 210.985C154.469 208.748 152.806 205.194 152.757 202.211C152.459 175.341 152.533 148.47 152.608 121.625C152.608 117.896 152.509 114.963 148.165 112.801C143.375 110.414 141.861 105.716 143.624 100.646C145.262 95.9228 148.91 93.2631 154.171 93.3377C159.334 93.4123 163.156 95.9228 164.645 100.72C166.183 105.692 165.017 110.514 160.028 112.85C155.958 114.764 155.636 117.349 155.636 120.979C155.735 147.426 155.536 173.849 155.884 200.297C155.933 203.628 157.869 207.555 160.252 210.091C167.226 217.523 174.895 224.358 182.241 231.468C187.775 236.837 187.8 252.323 182.291 257.667C174.944 264.776 167.375 271.686 160.302 279.019C158.44 280.958 157.025 284.139 157.001 286.749C156.777 322.344 156.752 357.964 157.001 393.559C157.001 396.542 158.663 400.171 160.823 402.334C171.519 413.147 182.539 423.661 193.682 434.051C196.983 437.134 198.224 440.266 198.224 444.665C198.1 547.001 198.125 649.362 198.125 751.698C198.125 754.457 198.249 757.241 198.298 760C196.958 760 195.643 760 194.303 760H194.278Z" fill="#141414"/>
<path d="M158.316 760C158.515 757.464 158.887 754.929 158.887 752.394C158.937 659.404 158.887 566.414 159.036 473.425C159.036 469.05 157.845 465.893 154.519 462.811C145.535 454.558 136.699 446.157 128.286 437.382C126.027 435.046 124.241 431.218 124.241 428.061C124.017 361.096 124.116 294.132 123.868 227.167C123.868 223.836 122.032 219.76 119.649 217.324C108.208 205.716 96.1462 194.679 84.6305 183.146C82.6202 181.132 81.2056 177.677 81.1559 174.868C80.8581 155.057 81.007 135.246 81.007 115.435C79.096 114.565 77.4332 113.969 75.9441 113.074C70.1863 109.594 68.8461 102.609 72.8666 97.5136C76.8127 92.4925 84.6305 91.8214 89.346 96.1216C94.1856 100.496 94.533 108.326 88.9241 111.781C84.2334 114.69 84.0101 118.095 84.0597 122.445C84.1838 139.298 83.9356 156.151 84.3079 172.979C84.3823 175.962 85.8963 179.616 88.0306 181.779C98.5784 192.442 109.3 202.957 120.468 212.999C125.754 217.746 127.715 222.668 127.69 229.653C127.392 295.126 127.566 360.599 127.392 426.072C127.392 430.77 128.832 434.002 132.331 437.183C141.018 445.113 149.183 453.564 157.894 461.468C161.269 464.526 162.411 467.708 162.411 472.082C162.287 565.271 162.312 658.484 162.312 751.673C162.312 754.457 162.361 757.216 162.386 760H158.391H158.316Z" fill="#141414"/>
<path d="M227.559 760C227.385 757.465 227.088 754.929 227.088 752.369C227.088 670.49 227.088 588.612 226.988 506.733C226.988 502.159 227.981 498.729 231.629 495.498C239.124 488.861 246.297 481.876 253.221 474.668C255.107 472.729 256.572 469.572 256.621 466.962C256.894 447.772 256.894 428.583 256.621 409.393C256.572 406.758 255.182 403.552 253.296 401.638C243.517 391.77 233.193 382.374 223.439 372.456C221.28 370.269 219.568 366.689 219.543 363.731C219.295 318.318 219.319 272.904 219.493 227.466C219.493 223.016 218.401 219.685 214.802 216.926C213.09 215.609 211.849 213.67 210.062 212.452C197.057 203.678 193.881 191.895 194.303 176.807C195.419 136.116 194.675 95.3511 194.724 54.6355C194.724 50.8821 194.625 47.949 190.232 45.8859C185.616 43.6984 184.251 39.1745 185.74 34.3274C187.329 29.2566 191.076 26.5969 196.611 26.6218C201.947 26.6218 205.496 29.4306 206.985 34.1285C208.499 38.8514 207.208 43.5245 202.617 45.8113C198.447 47.8993 197.976 50.6087 197.976 54.4864C198.075 99.8999 197.976 145.313 198.199 190.752C198.199 193.884 200.582 197.066 202.071 200.123C202.617 201.217 203.684 202.211 204.776 202.907C220.312 213.073 223.439 227.192 222.844 244.691C221.503 283.667 222.347 322.717 222.62 361.743C222.62 364.899 224.358 368.752 226.616 371.064C236.171 380.858 246.396 390.055 256.001 399.774C258.036 401.837 259.6 405.217 259.649 408.001C259.947 428.036 259.947 448.096 259.649 468.13C259.6 470.914 257.986 474.245 255.976 476.358C249.077 483.566 241.408 490.129 234.632 497.412C232.275 499.947 230.364 503.924 230.364 507.255C230.115 591.47 230.165 675.71 230.165 759.925C229.272 759.925 228.378 759.925 227.509 759.925L227.559 760Z" fill="#141414"/>
<path d="M267.492 760C267.442 738.027 267.368 716.053 267.368 694.104C267.368 591.296 267.442 488.488 267.194 385.655C267.194 378.72 268.733 373.575 274.317 369.001C282.532 362.265 290.151 354.832 298.937 346.878C287.148 335.817 276.377 326.023 266.077 315.832C263.918 313.694 262.33 310.04 262.305 307.082C262.057 270.17 262.057 233.282 262.305 196.37C262.305 193.213 264.042 189.385 266.3 187.048C275.21 177.851 284.84 169.276 293.774 160.079C296.058 157.742 297.82 153.964 297.894 150.807C298.291 132.885 298.217 114.963 297.969 97.0663C297.919 92.6666 298.912 89.3109 302.486 86.4524C305.365 84.1407 307.648 81.1578 310.527 78.8213C314.15 75.8882 316.061 72.9302 315.217 67.934C314.398 62.9874 317.724 59.2589 322.613 57.7923C327.403 56.3506 331.92 57.4195 335.022 61.6452C338.025 65.7714 338.025 70.1462 335.022 74.173C331.995 78.1999 327.478 80.089 322.762 77.9016C318.568 75.9627 316.756 77.8519 313.753 80.0393C303.429 87.5212 299.904 96.8425 300.947 109.271C302.138 123.265 301.046 137.409 301.294 151.478C301.369 155.853 300.153 159.059 296.802 162.142C287.346 170.842 278.04 179.715 269.055 188.863C267.045 190.901 265.481 194.307 265.457 197.115C265.208 233.58 265.208 270.07 265.432 306.535C265.432 309.121 267.02 312.253 268.931 314.191C277.791 323.165 286.949 331.84 296.182 340.465C298.217 342.379 300.897 343.647 303.801 345.561C293.65 355.23 285.386 363.532 276.575 371.263C271.909 375.364 270.271 379.714 270.296 385.73C270.47 507.752 270.42 629.75 270.395 751.772C270.395 754.532 270.222 757.316 270.122 760.075C269.229 760.075 268.336 760.075 267.467 760.075L267.492 760Z" fill="#141414"/>
<path d="M298.118 760C298.217 757.241 298.415 754.482 298.415 751.698C298.415 657.838 298.465 564.003 298.316 470.144C298.316 465.247 299.83 461.841 303.429 458.511C314.92 447.847 326.212 436.985 337.256 425.898C339.266 423.885 340.706 420.405 340.731 417.596C340.979 384.76 340.83 351.899 340.979 319.063C340.979 314.639 339.812 311.333 336.313 308.474C333.112 305.864 330.108 302.981 327.304 299.948C324.227 296.618 321.571 294.53 316.111 296.12C309.931 297.91 303.776 292.193 303.677 285.954C303.578 279.914 308.814 274.893 315.069 275.017C321.67 275.166 327.552 280.958 325.616 286.948C323.879 292.292 326.038 295.201 329.711 297.662C342.269 306.088 345.198 317.448 344.602 331.815C343.461 360.351 344.404 388.961 344.056 417.546C344.007 421.101 342.22 425.451 339.688 428.036C328.595 439.371 316.831 450.084 305.563 461.27C303.627 463.184 301.965 466.316 301.965 468.876C301.791 565.296 301.84 661.691 301.84 758.111C301.84 758.732 302.014 759.379 302.089 760C300.748 760 299.433 760 298.093 760H298.118Z" fill="#141414"/>
<path d="M119.699 760C119.773 741.457 119.897 722.889 119.897 704.345C119.897 633.329 119.897 562.313 119.997 491.297C119.997 486.748 118.88 483.392 115.306 480.136C104.708 470.442 94.3592 460.474 84.3078 450.233C82.0245 447.922 80.5354 444.193 80.188 440.962C79.5427 434.847 80.6843 428.533 79.8405 422.443C78.4011 412.128 81.826 404.273 90.5124 398.307C98.9506 392.491 102.574 384.884 101.06 374.718C100.266 369.274 100.489 363.607 101.06 358.114C101.681 351.974 99.5214 347.599 94.7315 343.672C91.7533 341.236 89.7678 339.297 85.1516 340.913C78.8478 343.125 72.4199 338.477 71.576 332.213C70.7074 325.775 75.4477 320.232 82.0742 319.958C88.6262 319.71 94.533 324.979 93.3169 331.343C92.3489 336.413 94.0366 339.446 97.7593 342.18C102.748 345.834 104.535 350.408 104.162 356.548C103.592 366.117 104.262 375.737 103.865 385.332C103.765 387.967 102.475 391.521 100.465 392.938C85.6232 403.179 81.1807 416.751 82.9924 433.877C83.8363 441.782 85.3254 447.797 91.6292 453.241C101.035 461.344 109.449 470.467 118.632 478.844C122.181 482.075 123.372 485.455 123.347 490.054C123.223 577.277 123.248 664.5 123.248 751.723C123.248 754.482 123.521 757.241 123.67 760C122.329 760 121.014 760 119.674 760H119.699Z" fill="#141414"/>
<path d="M316.533 212.203C316.533 216.255 316.508 220.307 316.533 224.358C316.607 230.076 315.366 235.594 322.663 239.397C327.974 242.156 326.981 250.408 322.266 254.535C317.774 258.487 310.179 257.866 306.258 253.217C302.188 248.42 302.585 240.938 308.268 238.154C313.257 235.693 313.207 232.412 313.182 228.336C313.108 216.603 312.86 204.871 313.306 193.163C313.431 189.956 315.044 186.129 317.302 183.792C326.361 174.446 336.114 165.696 345.248 156.4C347.283 154.337 348.772 151.006 348.896 148.172C349.343 138.801 349.343 129.405 348.896 120.059C348.772 117.673 346.935 114.814 344.95 113.223C340.756 109.843 338.596 106.04 340.16 100.944C341.624 96.1713 345.223 93.4122 350.459 93.3128C355.944 93.2134 359.866 95.8233 361.404 100.919C362.943 106.015 361.305 110.663 356.441 112.925C352.445 114.764 352.395 117.325 352.42 120.606C352.495 130.399 352.643 140.218 352.296 150.011C352.197 152.447 350.956 155.381 349.219 157.145C340.036 166.392 330.63 175.44 321.025 184.289C317.724 187.346 316.111 190.454 316.409 194.903C316.781 200.645 316.508 206.412 316.508 212.154L316.533 212.203Z" fill="#141414"/>
<path d="M265.333 79.7409C265.333 97.439 265.407 115.137 265.283 132.86C265.283 136.489 265.655 139.025 269.701 140.988C274.516 143.35 275.881 148.048 274.218 153.143C272.629 158.04 268.509 161.098 263.744 160.228C259.997 159.556 255.678 156.623 253.693 153.491C250.913 149.117 252.502 143.598 257.391 141.336C262.479 139 262.23 135.57 262.206 131.518C262.181 97.1905 262.156 62.8382 262.23 28.5108C262.23 24.5089 262.156 21.4515 257.515 19.2143C252.576 16.8529 251.013 11.4341 253.594 7.08417C255.48 3.90249 259.798 0.8948 263.546 0.173949C268.708 -0.820327 272.877 2.46079 274.367 7.63102C275.756 12.4284 274.54 17.0269 269.874 19.2392C265.556 21.2775 265.258 24.1112 265.283 27.9143C265.407 45.1898 265.333 62.4654 265.333 79.7409Z" fill="#141414"/>
</g>
<defs>
<clipPath id="clip0_108_2117">
<rect width="760" height="362" fill="white" transform="matrix(0 1 -1 0 362 0)"/>
</clipPath>
</defs>
</svg>
