<?xml version="1.0" encoding="UTF-8"?>
<svg id="Calque_1" data-name="Calque 1" xmlns="http://www.w3.org/2000/svg" xmlns:xlink="http://www.w3.org/1999/xlink" viewBox="0 0 634 229">
  <defs>
    <style>
      .cls-1 {
        fill: #141414;
      }

      .cls-2 {
        fill: none;
      }

      .cls-3 {
        clip-path: url(#clippath);
      }
    </style>
    <clipPath id="clippath">
      <rect class="cls-2" x=".5" y=".5" width="633" height="228"/>
    </clipPath>
  </defs>
  <g class="cls-3">
    <g>
      <path class="cls-1" d="M632.99,162.84v11.93c-1.89.09-3.48.22-5.07.22-71.21,0-142.4.12-213.61-.09-71.68-.21-143.36-.77-215.05-1.13-3.71-.02-8.15-1.14-9.4,5.49h5.18c46.27.12,92.54.23,138.81.35,98.08.25,196.16.49,294.24.84,1.73,0,4.53.94,4.97,2.14,1.33,3.65-.7,4.64-4.32,4.62-29-.12-58,.01-87.01-.02-28.34-.03-56.7-.15-85.04-.27-84.38-.37-168.78-.76-253.16-1.17-4.56-.02-9.12-.24-13.68-.41-3.21-.12-5.43.98-7.07,4.11-2.75,5.27-5.79,10.45-9.17,15.31-1.16,1.67-3.75,3.21-5.73,3.26-12.38.3-24.76.3-37.14.02-1.99-.05-4.73-1.5-5.77-3.18-6.11-9.83-11.72-19.98-17.7-29.89-2.1-3.48-2.24-6.33.02-9.93,5.82-9.23,11.34-18.65,16.74-28.14,1.92-3.36,4.05-5,8.1-4.88,12.04.35,24.11.11,36.16.5,1.97.06,4.58,1.69,5.68,3.41,4.35,6.82,8.33,13.9,12.22,21.03,1.68,3.09,3.68,4.38,7.31,4.39,145,.33,290,.77,435,1.21,1.43,0,2.86.16,4.46.25v.02ZM150.32,138.65v-.23c-5.05,0-10.13-.35-15.14.16-2.2.23-5.03,1.67-6.2,3.49-5.36,8.34-10.33,16.94-15.15,25.62-.74,1.34-.6,3.91.18,5.32,4.78,8.71,9.74,17.31,14.94,25.76.94,1.52,3.21,3,4.93,3.06,9.93.35,19.87.48,29.79.17,2.13-.07,5-1.73,6.18-3.57,5.26-8.2,10.15-16.65,14.86-25.2.82-1.48.82-4.22.02-5.71-4.15-7.72-8.89-15.1-13.01-22.84-2.21-4.14-4.49-6.9-9.69-6.15-3.83.55-7.8.11-11.71.11Z"/>
      <path class="cls-1" d="M286.09,77.35c-6.35,0-12.71.17-19.04-.12-1.57-.07-3.64-1.25-4.51-2.58-3.51-5.39-6.72-11-9.85-16.64-1.44-2.59-3.17-3.66-6.21-3.66-39.08-.02-78.17-.16-117.24-.39-3.22-.02-5.09,1.18-6.61,3.94-2.95,5.36-5.94,10.73-9.4,15.75-1.16,1.69-3.8,3.26-5.78,3.28-12.37.15-24.74-.03-37.11-.45-1.86-.06-4.41-1.46-5.38-3.04-6.41-10.41-12.6-20.98-18.55-31.67-.9-1.61-1.01-4.61-.13-6.18,5.97-10.68,12.19-21.22,18.66-31.58,1.1-1.75,3.82-3.43,5.8-3.46,12.2-.19,24.41.25,36.62.16,3.69-.03,5.64,1.68,7.28,4.62,3.72,6.64,7.68,13.14,11.3,19.84,1.68,3.11,3.76,4.38,7.35,4.36,23.61-.1,47.22,0,70.83.12,12.85.06,25.72.17,38.57.52,3.4.09,5.36-1.12,6.99-4.04,3.79-6.79,7.97-13.34,11.76-20.13,1.61-2.89,3.47-4.29,6.9-4.25,12.21.17,24.43.08,36.64-.07,3.05-.04,5.08.82,6.69,3.72,5.85,10.56,12.08,20.91,17.89,31.49.82,1.5.86,4.29.04,5.76-6.09,10.8-12.4,21.49-18.93,32.03-.9,1.45-3.3,2.62-5.06,2.71-6.5.32-13.02.13-19.53.13v-.16h0ZM284.15,71.44c7.24,0,12.15.29,17.01-.14,1.92-.17,4.4-1.45,5.42-3.04,5.36-8.33,10.49-16.83,15.34-25.49.91-1.62.97-4.64.09-6.26-4.74-8.72-9.78-17.27-15.01-25.69-.93-1.49-3.22-2.92-4.91-2.97-9.93-.26-19.87-.31-29.79.08-2.12.08-4.83,1.76-6.12,3.56-3.35,4.69-5.53,10.29-9.11,14.74-7.03,8.71-8.22,16.94-.26,25.59.75.82,1.24,1.96,1.67,3.03,5.15,12.95,13.2,20.76,25.67,16.59ZM89.08,70.1c5.05,0,10.12.27,15.14-.14,1.87-.16,4.32-1.46,5.31-3.03,5.28-8.4,10.28-16.97,15.1-25.65.74-1.34.68-3.86-.07-5.23-4.76-8.72-9.69-17.32-14.86-25.79-.92-1.5-3.18-2.93-4.89-3-10.08-.41-20.19-.59-30.27-.39-1.97.04-4.64,1.62-5.73,3.33-5.31,8.37-10.29,16.96-15.12,25.63-.76,1.38-.79,3.96-.03,5.33,4.79,8.69,9.76,17.28,15.01,25.69.99,1.58,3.42,2.94,5.3,3.1,5.01.43,10.08.15,15.14.14h-.02ZM246.19,47.49c-.93-3.93-3.22-5.1-6.81-5.08-15.3.09-30.6-.03-45.92-.06-19.05-.04-38.09-.07-57.15-.13-3.27,0-6.16.44-6.79,5.26h116.66Z"/>
      <path class="cls-1" d="M433.02,132.72c-3.46-5.94-6.55-11.53-9.9-16.93-1.69-2.73-1.81-5.04-.12-7.82,5.35-8.74,10.45-17.65,15.9-26.32.84-1.35,3.03-2.54,4.61-2.56,10.75-.14,21.51-.09,32.25.28,1.85.07,4.29,1.56,5.35,3.16,3.36,5.09,6.31,10.49,9.2,15.88,1.82,3.39,4.11,4.86,8.15,4.84,43.01-.25,86.02-.28,129.03-.37h5.56v9.4h-6.98c-41.06,0-82.11.04-123.17-.05-3.52,0-6.06.7-7,5.32h136.99c.21,2.43.35,4.16.57,6.69h-5.58c-44.15.01-88.3.05-132.45-.04-2.96,0-4.82.72-6.27,3.44-2.49,4.67-5.03,9.37-8.14,13.61-1.3,1.77-4.06,3.31-6.21,3.39-10.08.34-20.2.05-30.29.17-3.1.04-5.34-.77-6.53-3.9-1.29-3.38-3.94-4.42-7.34-4.43-29-.08-58-.29-87-.25-1.71,0-3.49,1.7-5.11,2.8-.62.42-.86,1.39-1.33,2.07-2.58,3.75-4.52,9.64-7.94,10.75-5.62,1.81-12.21.56-18.38.51-.73,0-1.81-.35-2.14-.91-3.27-5.36-6.47-10.77-9.54-16.25-.36-.65-.04-1.99.39-2.76,2.79-4.88,5.62-9.75,8.65-14.48.59-.92,2.04-1.39,3.18-1.75.89-.28,1.96.09,2.91-.08,11.4-1.97,19.78,1.42,24,13.29.56,1.58,3.42,3.25,5.23,3.27,29,.31,58,.37,86.99.47.59,0,1.16-.2,2.48-.44ZM459.6,138.49c13.31,4.38,19.31-3.96,24.07-14.44.14-.3.26-.63.49-.86,7.35-7.74,5.13-14.89,0-23.12-8.94-14.32-8.55-13.9-25.31-14.91-10.6-.64-18.27,1.48-21.91,12.43-.21.61-.64,1.17-1.07,1.66-7.27,8.13-7.77,16.32-.34,24.66.42.48.61,1.17.93,1.75,4.84,8.56,12.07,12.84,21.68,12.83h1.47,0ZM320.65,149.89c2.27-.61,6.46-.42,8.29-2.44,8.53-9.46,8.39-15.62.48-25.49-.76-.96-1.91-1.99-3.02-2.2-12.3-2.32-14.99-.99-21.39,10.2-.58,1-1.26,1.95-1.7,3.01-.29.69-.59,1.74-.28,2.27,2.46,4.29,4.51,9.02,7.82,12.51,1.7,1.8,5.69,1.36,9.81,2.15h0Z"/>
      <path class="cls-1" d="M632.9,31.43h-9.1c-59.29-.03-118.58,0-177.88-.22-4.57-.02-7.62,1.26-9.17,5.44-2.51,6.76-7.23,8.04-13.95,8.43-10.1.59-16.56-2.18-21.08-12.05-2.72-5.94-2.89-9.81,0-15.74,4.63-9.51,10.71-12.81,21.03-12.07,7,.5,11.72,1.95,14.16,8.87,1.97,5.58,5.83,7.1,11.7,7.08,59.78-.16,119.56.03,179.34.12.98,0,2.09-.28,2.9.1.97.45,2.51,1.76,2.36,2.2-.36,1.11-1.44,2.62-2.41,2.77-2.55.39-5.19.15-7.79.15-47.07.02-94.15.05-141.23.04-11.24,0-22.48-.15-33.71-.19-1.66,0-3.34.21-4.98,1.15,63.33,1.1,126.65.79,189.96,1.02-.05.97-.09,1.93-.14,2.9h0ZM419.34,41.94c4.02-.63,8.79.07,10.69-1.99,3.78-4.1,8.07-9.67,8.21-14.74.14-4.78-3.93-10.7-7.78-14.26-2.64-2.44-8.08-2.06-12.3-2.27-2.58-.13-6.37.12-7.61,1.76-3.39,4.54-7.69,9.85-7.85,14.97-.14,4.63,4.12,9.98,7.62,13.94,1.83,2.08,6.17,1.85,9.02,2.58h0Z"/>
      <path class="cls-1" d="M632.72,207.24c1.29,6.65,1.27,6.74-4.31,6.74-56.66-.02-113.31-.02-169.97-.13-17.74-.03-35.48-.24-53.21-.71-4.52-.12-7.22,1.82-8.7,5.6-3.02,7.7-8.17,9.74-16.24,9.75-8.27.02-12.97-2.54-16.8-9.94-2.98-5.76-3.87-9.74-.57-16.15,4.61-8.96,10.53-11.5,19.78-10.84,5.73.41,10.22,1.14,12.19,7.24,2.45,7.59,8,8.42,14.93,8.4,65.45-.15,130.91-.02,196.36.03h26.56v.02ZM380.22,225.9c2.98-.71,7.16-.42,8.88-2.38,3.26-3.71,5.85-8.49,7.33-13.26,1.22-3.93-7.79-15.19-11.28-14.99-4.76.28-10.49-.43-13.97,2.01-3.75,2.63-7.36,8.4-7.39,12.82-.03,4.42,3.9,9.4,7.19,13.11,1.75,1.98,5.84,1.8,9.24,2.69Z"/>
      <path class="cls-1" d="M178.73,122.23c32.41,0,64.81-.04,97.22.07,3.15.01,5.19-.91,6.76-3.7,1.78-3.17,9.77-4.81,12.97-2.89,3.85,2.31,5.29,8.82,2.86,12.98-3.83,6.59-12.66,6.95-16.25.36-1.9-3.49-4.71-3.11-7.52-3.13-18.89-.13-37.78-.15-56.67-.24-45.1-.23-90.21-.42-135.3-.84-4.01-.04-6.2,1.26-8.09,4.71-4.4,8.02-15.6,7.95-20.21.06-3.73-6.38-3.92-11.19,2.26-15.88,3.34-2.53,9.41-1.59,14.24-1.59,1.15,0,2.73,2.36,3.34,3.94,1.8,4.69,5.06,5.47,9.62,5.44,31.59-.19,63.18-.1,94.77-.1v.82h0ZM64.7,114.16c-4.66.03-10.82,5.4-10.52,9.18.34,4.39,6.01,9.26,10.73,9.21,4.53-.05,9.84-5.14,9.87-9.49.03-4.34-5.16-8.93-10.06-8.9h-.01Z"/>
      <path class="cls-1" d="M286.83,102.14c28.34,0,56.7-.09,85.04.1,4.02.03,6.63-1.19,7.99-4.87,2.8-7.63,7.96-10.66,15.83-9.13,2.97.58,7.26-.49,8.78,1.21,3.54,3.95,6.14,8.98,8.33,13.93.65,1.47-1.08,4.31-2.17,6.26-6.14,10.84-6.2,10.57-18.41,10.83-5.09.11-8.46-1.43-10.24-6.31-2.36-6.42-6.63-8.3-13.47-8.3-55.22-.02-110.44-.46-165.65-1-4.6-.04-7.32,1.39-9.1,5.53-.77,1.81-2.12,3.36-3,5.13-1.34,2.72-3.33,3.94-6.3,3.5-.64-.1-1.3-.04-1.95-.04-9.37-.05-16.22-4.36-20.56-12.91-.23-.44-.49-.87-.66-1.34-1.48-4.08,7.7-17.63,11.95-17.66.98,0,1.97.14,2.93,0,8.75-1.22,15.56,1.06,18.61,10.48,1.03,3.14,3.39,3.78,6.53,3.77,28.5-.12,57.01-.07,85.51-.07v.87h0ZM394.69,118.46c3.65-.93,7.73.68,9.89-4.06,1.63-3.58,5.37-7.14,5.08-10.42-.35-4.03-3.13-8.85-6.33-11.3-2.75-2.1-7.58-1.6-11.5-1.79-4.21-.21-13.16,9.28-11.88,13.26,1.43,4.45,4.08,8.75,7.13,12.28,1.44,1.67,5.01,1.41,7.62,2.03ZM179.21,116.92c3.01-.66,6.78-.34,8.32-2.08,2.96-3.34,6.41-7.87,6.38-11.88-.03-4.03-3.3-8.95-6.57-11.74-2.36-2.02-7.02-1.41-10.68-1.59-4.43-.23-13.97,9.58-12.7,13.7,1.28,4.15,3.73,8.32,6.73,11.39,1.78,1.82,5.63,1.54,8.53,2.21h-.01Z"/>
      <path class="cls-1" d="M416.71,52.22c11.55,0,23.12-.1,34.67.06,3.68.05,5.88-1.28,7.74-4.63,4.89-8.88,16.48-8.75,21.68.01,3.46,5.81,2.06,13.44-3.26,17.74-3.58,2.9-15.73.74-17.6-3.56-2.19-5.05-5.67-6.4-10.76-6.38-22.14.1-44.27.04-66.4-.34-4.41-.08-6.77,1.47-8.8,5.18-4.58,8.42-16.12,8.46-21.06.24-3.93-6.55-2.84-13.39,2.92-18.24,3.75-3.16,15.43-1.16,17.48,3.37,2.22,4.9,5.42,6.48,10.68,6.26,10.89-.45,21.8-.14,32.71-.14v.43h0ZM363.3,63.41c5.2-.03,10.93-5.31,10.87-10.03-.07-5.07-5.75-10.06-11.46-10.05-4.1,0-10.44,6.4-10.34,10.45.11,4.2,6.29,9.66,10.94,9.63ZM469.77,44.25c-5.2-.03-10.44,4.68-10.79,9.7-.25,3.58,5.53,9.69,9.18,9.69,6.25,0,13.05-5.02,12.99-9.63-.05-4.15-6.56-9.73-11.39-9.76Z"/>
      <path class="cls-1" d="M13.24,135.49c5.05-.82,8.22,1.35,10.01,5.98,1.41,3.66,4.05,4.54,7.72,4.48,12.85-.2,25.72-.19,38.57-.09,2.89.02,4.99-.56,6.24-3.51,2.35-5.53,7.49-4.22,11-3.03,2.72.92,5.8,4.74,6.22,7.66.4,2.77-1.84,6.63-4.02,8.91-2.64,2.74-10.99.23-13.46-2.71-1.34-1.6-3.71-3.17-5.67-3.24-13.01-.43-26.03-.29-39.04-.71-3.81-.12-5.93,1.16-7.72,4.46-4.37,8.04-15.72,8.18-20.29.42-3.69-6.27-3.02-12.34,2.66-16.8,1.92-1.5,5.15-1.26,7.77-1.81h.02ZM12.8,138.39c-4.58-.06-10.27,5.04-10.23,9.16.04,4.12,5.35,9.26,9.64,9.33,5.33.09,10.53-4.45,10.65-9.3.12-4.51-4.92-9.12-10.06-9.19Z"/>
      <path class="cls-1" d="M223.3,151.86c-6.23,0-8.64-4.26-8.98-8.1-.26-2.9,2.17-6.82,4.54-9.01,2.48-2.29,8.17.26,10.67,2.98,1.45,1.57,3.85,3.01,5.88,3.11,8.78.4,17.59.46,26.38.23,2.15-.06,4.63-1.22,6.32-2.67,3.47-2.96,7.32-4.51,11.17-2.26,2.45,1.43,5.67,5.09,5.28,7.07-.52,2.64-3.87,5.51-6.65,6.67-3.3,1.37-6.88.27-9.76-2.76-1.39-1.46-3.82-2.56-5.82-2.62-9.11-.28-18.25-.3-27.36-.01-1.91.06-3.85,1.69-5.63,2.84-2.11,1.36-4.04,2.99-6.05,4.51h.01Z"/>
      <path class="cls-1" d="M353.76,68.32c5.3-.64,8.33,1.71,10.49,6.42.74,1.6,2.96,3.5,4.52,3.53,14.12.29,28.26.31,42.37.06,1.8-.03,4.01-1.71,5.27-3.26,2.36-2.91,9.07-5.37,12.48-2.71,2.55,1.98,4.85,6.17,4.81,9.35-.07,5.29-3.86,7.81-8.65,8-4.09.16-7.62-.09-9.52-4.84-.49-1.23-3.18-2.15-4.88-2.19-13.82-.32-27.65-.59-41.46-.3-1.96.04-4.39,2.84-5.7,4.94-4.38,7.05-15.45,7.24-19.85.1-4.15-6.75-3.9-11.53,2-16.91,1.85-1.69,5.34-1.51,8.08-2.19l.02.02ZM353.25,89.59c5.24.05,9.87-4.01,10.15-8.95.26-4.38-4.6-9.37-9.16-9.4-5.29-.03-11.02,4.97-10.85,9.46.17,4.33,5.17,8.84,9.85,8.88h0ZM424.3,74.28c-3.48-.1-7.4,3.17-7.48,6.23-.08,2.77,3.64,6.55,6.59,6.68,4.02.18,7.83-2.84,7.91-6.26.07-3.25-3.4-6.54-7.02-6.65Z"/>
      <path class="cls-1" d="M226.83,89.02c-5.79.91-9.1-2.08-11.22-6.96-1.31-3-3.32-3.89-6.52-3.85-12.7.17-25.41.14-38.11-.06-3.44-.05-5.8.76-7.55,4.02-1.91,3.54-9.03,5.59-12.31,2.82-2.56-2.16-4.69-6.22-4.89-9.58-.27-4.62,4.57-7.87,9.08-8.23,4.19-.33,7.13.72,9.09,4.81.62,1.28,2.76,2.52,4.23,2.55,14,.31,28,.56,42,.25,2.02-.04,4.53-2.75,5.86-4.85,4.41-7.01,15.76-7.18,20-.05,4.08,6.87,3.6,11.97-2.46,17.25-1.69,1.47-4.78,1.29-7.21,1.86ZM226.89,86.21c4.42.02,10.02-5.11,10.13-9.28.12-4.79-6.73-10.26-13.51-8.94-2.81.55-5.82,5.39-6.81,8.87-1.17,4.12,5.21,9.33,10.19,9.35ZM156.26,70.11c-3.67-.07-7.65,3.28-7.67,6.47-.02,2.75,4.13,6.56,7.24,6.64,3.4.08,7.59-3.57,7.66-6.69.06-2.74-4.01-6.35-7.23-6.41h0Z"/>
    </g>
  </g>
</svg>